<mxfile host="drawio-plugin" modified="2022-11-12T05:07:20.914Z" agent="5.0 (Windows NT 6.2; Win64; x64) AppleWebKit/537.36 (KHTML, like Gecko) Chrome/98.0.4758.102 Safari/537.36" etag="U-5pplH8Hz8x2dMuKJiM" version="15.5.4" type="embed"><diagram id="Je_jK2V_8Z9Xw-o6vHtV" name="Full Progect"><mxGraphModel dx="13830" dy="5730" grid="1" gridSize="10" guides="1" tooltips="1" connect="1" arrows="1" fold="1" page="1" pageScale="1" pageWidth="900" pageHeight="1600" math="0" shadow="0"><root><mxCell id="0"/><mxCell id="1" parent="0"/><mxCell id="7xXleIvDm7jgAc_pziCA-107" value="" style="rounded=0;whiteSpace=wrap;html=1;" parent="1" vertex="1"><mxGeometry x="-200" y="360" width="240" height="320" as="geometry"/></mxCell><mxCell id="7xXleIvDm7jgAc_pziCA-29" style="edgeStyle=orthogonalEdgeStyle;rounded=0;orthogonalLoop=1;jettySize=auto;html=1;exitX=0.5;exitY=1;exitDx=0;exitDy=0;entryX=0;entryY=0.5;entryDx=0;entryDy=0;" parent="1" source="7xXleIvDm7jgAc_pziCA-2" target="7xXleIvDm7jgAc_pziCA-3" edge="1"><mxGeometry relative="1" as="geometry"/></mxCell><mxCell id="7xXleIvDm7jgAc_pziCA-32" style="edgeStyle=orthogonalEdgeStyle;rounded=0;orthogonalLoop=1;jettySize=auto;html=1;exitX=0.5;exitY=1;exitDx=0;exitDy=0;entryX=0;entryY=0.5;entryDx=0;entryDy=0;" parent="1" source="7xXleIvDm7jgAc_pziCA-2" target="7xXleIvDm7jgAc_pziCA-10" edge="1"><mxGeometry relative="1" as="geometry"/></mxCell><mxCell id="7xXleIvDm7jgAc_pziCA-33" style="edgeStyle=orthogonalEdgeStyle;rounded=0;orthogonalLoop=1;jettySize=auto;html=1;exitX=0.5;exitY=1;exitDx=0;exitDy=0;entryX=0;entryY=0.5;entryDx=0;entryDy=0;" parent="1" source="7xXleIvDm7jgAc_pziCA-2" target="7xXleIvDm7jgAc_pziCA-8" edge="1"><mxGeometry relative="1" as="geometry"/></mxCell><mxCell id="7xXleIvDm7jgAc_pziCA-37" style="edgeStyle=orthogonalEdgeStyle;rounded=0;orthogonalLoop=1;jettySize=auto;html=1;exitX=0.5;exitY=1;exitDx=0;exitDy=0;entryX=0;entryY=0.5;entryDx=0;entryDy=0;" parent="1" source="7xXleIvDm7jgAc_pziCA-2" target="7xXleIvDm7jgAc_pziCA-9" edge="1"><mxGeometry relative="1" as="geometry"/></mxCell><mxCell id="7xXleIvDm7jgAc_pziCA-39" style="edgeStyle=orthogonalEdgeStyle;rounded=0;orthogonalLoop=1;jettySize=auto;html=1;exitX=0.5;exitY=1;exitDx=0;exitDy=0;entryX=0;entryY=0.5;entryDx=0;entryDy=0;" parent="1" source="7xXleIvDm7jgAc_pziCA-2" target="7xXleIvDm7jgAc_pziCA-13" edge="1"><mxGeometry relative="1" as="geometry"/></mxCell><mxCell id="7xXleIvDm7jgAc_pziCA-40" style="edgeStyle=orthogonalEdgeStyle;rounded=0;orthogonalLoop=1;jettySize=auto;html=1;exitX=0.5;exitY=1;exitDx=0;exitDy=0;entryX=0;entryY=0.5;entryDx=0;entryDy=0;" parent="1" source="7xXleIvDm7jgAc_pziCA-2" target="7xXleIvDm7jgAc_pziCA-23" edge="1"><mxGeometry relative="1" as="geometry"/></mxCell><mxCell id="7xXleIvDm7jgAc_pziCA-41" style="edgeStyle=orthogonalEdgeStyle;rounded=0;orthogonalLoop=1;jettySize=auto;html=1;exitX=0.5;exitY=1;exitDx=0;exitDy=0;entryX=0;entryY=0.5;entryDx=0;entryDy=0;" parent="1" source="7xXleIvDm7jgAc_pziCA-2" target="7xXleIvDm7jgAc_pziCA-16" edge="1"><mxGeometry relative="1" as="geometry"/></mxCell><mxCell id="7xXleIvDm7jgAc_pziCA-42" style="edgeStyle=orthogonalEdgeStyle;rounded=0;orthogonalLoop=1;jettySize=auto;html=1;exitX=0.5;exitY=1;exitDx=0;exitDy=0;entryX=0;entryY=0.5;entryDx=0;entryDy=0;" parent="1" source="7xXleIvDm7jgAc_pziCA-2" target="7xXleIvDm7jgAc_pziCA-18" edge="1"><mxGeometry relative="1" as="geometry"/></mxCell><mxCell id="7xXleIvDm7jgAc_pziCA-44" style="edgeStyle=orthogonalEdgeStyle;rounded=0;orthogonalLoop=1;jettySize=auto;html=1;exitX=0.5;exitY=1;exitDx=0;exitDy=0;entryX=0;entryY=0.5;entryDx=0;entryDy=0;" parent="1" source="7xXleIvDm7jgAc_pziCA-2" target="7xXleIvDm7jgAc_pziCA-19" edge="1"><mxGeometry relative="1" as="geometry"/></mxCell><mxCell id="7xXleIvDm7jgAc_pziCA-45" style="edgeStyle=orthogonalEdgeStyle;rounded=0;orthogonalLoop=1;jettySize=auto;html=1;exitX=0.5;exitY=1;exitDx=0;exitDy=0;entryX=0;entryY=0.5;entryDx=0;entryDy=0;" parent="1" source="7xXleIvDm7jgAc_pziCA-2" target="7xXleIvDm7jgAc_pziCA-20" edge="1"><mxGeometry relative="1" as="geometry"/></mxCell><mxCell id="7xXleIvDm7jgAc_pziCA-46" style="edgeStyle=orthogonalEdgeStyle;rounded=0;orthogonalLoop=1;jettySize=auto;html=1;exitX=0.5;exitY=1;exitDx=0;exitDy=0;entryX=0;entryY=0.5;entryDx=0;entryDy=0;" parent="1" source="7xXleIvDm7jgAc_pziCA-2" target="7xXleIvDm7jgAc_pziCA-21" edge="1"><mxGeometry relative="1" as="geometry"/></mxCell><mxCell id="7xXleIvDm7jgAc_pziCA-47" style="edgeStyle=orthogonalEdgeStyle;rounded=0;orthogonalLoop=1;jettySize=auto;html=1;exitX=0.5;exitY=1;exitDx=0;exitDy=0;entryX=0;entryY=0.5;entryDx=0;entryDy=0;" parent="1" source="7xXleIvDm7jgAc_pziCA-2" target="7xXleIvDm7jgAc_pziCA-22" edge="1"><mxGeometry relative="1" as="geometry"/></mxCell><mxCell id="L4_pr1pYZJ6r3tZRuc8D-36" style="edgeStyle=orthogonalEdgeStyle;rounded=0;orthogonalLoop=1;jettySize=auto;html=1;exitX=0.5;exitY=1;exitDx=0;exitDy=0;entryX=0;entryY=0.5;entryDx=0;entryDy=0;" parent="1" source="7xXleIvDm7jgAc_pziCA-2" target="UJV2R2LUBAMsPxbDvIgO-6" edge="1"><mxGeometry relative="1" as="geometry"/></mxCell><mxCell id="L4_pr1pYZJ6r3tZRuc8D-63" style="edgeStyle=orthogonalEdgeStyle;rounded=0;orthogonalLoop=1;jettySize=auto;html=1;exitX=0.5;exitY=1;exitDx=0;exitDy=0;entryX=0;entryY=0.5;entryDx=0;entryDy=0;" parent="1" source="7xXleIvDm7jgAc_pziCA-2" target="L4_pr1pYZJ6r3tZRuc8D-61" edge="1"><mxGeometry relative="1" as="geometry"/></mxCell><mxCell id="L4_pr1pYZJ6r3tZRuc8D-64" style="edgeStyle=orthogonalEdgeStyle;rounded=0;orthogonalLoop=1;jettySize=auto;html=1;exitX=0.5;exitY=1;exitDx=0;exitDy=0;entryX=0;entryY=0.5;entryDx=0;entryDy=0;" parent="1" source="7xXleIvDm7jgAc_pziCA-2" target="L4_pr1pYZJ6r3tZRuc8D-62" edge="1"><mxGeometry relative="1" as="geometry"/></mxCell><mxCell id="7xXleIvDm7jgAc_pziCA-2" value="Home page" style="rounded=1;whiteSpace=wrap;html=1;" parent="1" vertex="1"><mxGeometry x="80" y="360" width="160" height="40" as="geometry"/></mxCell><mxCell id="7xXleIvDm7jgAc_pziCA-30" style="edgeStyle=orthogonalEdgeStyle;rounded=0;orthogonalLoop=1;jettySize=auto;html=1;exitX=0.5;exitY=1;exitDx=0;exitDy=0;entryX=0;entryY=0.5;entryDx=0;entryDy=0;" parent="1" source="7xXleIvDm7jgAc_pziCA-3" target="7xXleIvDm7jgAc_pziCA-5" edge="1"><mxGeometry relative="1" as="geometry"/></mxCell><mxCell id="7xXleIvDm7jgAc_pziCA-31" style="edgeStyle=orthogonalEdgeStyle;rounded=0;orthogonalLoop=1;jettySize=auto;html=1;exitX=0.5;exitY=1;exitDx=0;exitDy=0;entryX=0;entryY=0.5;entryDx=0;entryDy=0;" parent="1" source="7xXleIvDm7jgAc_pziCA-3" target="7xXleIvDm7jgAc_pziCA-6" edge="1"><mxGeometry relative="1" as="geometry"><Array as="points"><mxPoint x="280" y="620"/></Array></mxGeometry></mxCell><mxCell id="7xXleIvDm7jgAc_pziCA-3" value="About" style="rounded=1;whiteSpace=wrap;html=1;" parent="1" vertex="1"><mxGeometry x="200" y="440" width="160" height="40" as="geometry"/></mxCell><mxCell id="7xXleIvDm7jgAc_pziCA-5" value="Our Story" style="rounded=1;whiteSpace=wrap;html=1;" parent="1" vertex="1"><mxGeometry x="320" y="520" width="160" height="40" as="geometry"/></mxCell><mxCell id="7xXleIvDm7jgAc_pziCA-6" value="Our Team" style="rounded=1;whiteSpace=wrap;html=1;" parent="1" vertex="1"><mxGeometry x="320" y="600" width="160" height="40" as="geometry"/></mxCell><mxCell id="7xXleIvDm7jgAc_pziCA-69" style="edgeStyle=orthogonalEdgeStyle;rounded=0;orthogonalLoop=1;jettySize=auto;html=1;exitX=1;exitY=0.5;exitDx=0;exitDy=0;entryX=-0.004;entryY=0.372;entryDx=0;entryDy=0;entryPerimeter=0;" parent="1" source="7xXleIvDm7jgAc_pziCA-7" target="7xXleIvDm7jgAc_pziCA-61" edge="1"><mxGeometry relative="1" as="geometry"/></mxCell><mxCell id="7xXleIvDm7jgAc_pziCA-103" style="edgeStyle=orthogonalEdgeStyle;rounded=0;orthogonalLoop=1;jettySize=auto;html=1;exitX=0.75;exitY=0;exitDx=0;exitDy=0;" parent="1" source="7xXleIvDm7jgAc_pziCA-7" target="7xXleIvDm7jgAc_pziCA-76" edge="1"><mxGeometry relative="1" as="geometry"/></mxCell><mxCell id="7xXleIvDm7jgAc_pziCA-7" value="Event" style="rounded=1;whiteSpace=wrap;html=1;fillColor=#e1d5e7;strokeColor=#9673a6;fontColor=#000000;" parent="1" vertex="1"><mxGeometry x="320" y="840" width="160" height="40" as="geometry"/></mxCell><mxCell id="7xXleIvDm7jgAc_pziCA-35" style="edgeStyle=orthogonalEdgeStyle;rounded=0;orthogonalLoop=1;jettySize=auto;html=1;exitX=0.5;exitY=1;exitDx=0;exitDy=0;entryX=0;entryY=0.5;entryDx=0;entryDy=0;" parent="1" source="7xXleIvDm7jgAc_pziCA-8" target="7xXleIvDm7jgAc_pziCA-7" edge="1"><mxGeometry relative="1" as="geometry"><mxPoint x="320.0000000000002" y="860.0000000000002" as="targetPoint"/></mxGeometry></mxCell><mxCell id="7xXleIvDm7jgAc_pziCA-79" style="edgeStyle=orthogonalEdgeStyle;rounded=0;orthogonalLoop=1;jettySize=auto;html=1;exitX=1;exitY=0.5;exitDx=0;exitDy=0;entryX=0;entryY=0.5;entryDx=0;entryDy=0;" parent="1" source="7xXleIvDm7jgAc_pziCA-8" target="7xXleIvDm7jgAc_pziCA-77" edge="1"><mxGeometry relative="1" as="geometry"/></mxCell><mxCell id="7xXleIvDm7jgAc_pziCA-104" style="edgeStyle=orthogonalEdgeStyle;rounded=0;orthogonalLoop=1;jettySize=auto;html=1;exitX=1;exitY=0.25;exitDx=0;exitDy=0;entryX=0.5;entryY=0;entryDx=0;entryDy=0;" parent="1" source="7xXleIvDm7jgAc_pziCA-8" target="7xXleIvDm7jgAc_pziCA-86" edge="1"><mxGeometry relative="1" as="geometry"><Array as="points"><mxPoint x="360" y="780"/><mxPoint x="540" y="780"/><mxPoint x="540" y="640"/><mxPoint x="830" y="640"/></Array></mxGeometry></mxCell><mxCell id="7xXleIvDm7jgAc_pziCA-8" value="Events" style="rounded=1;whiteSpace=wrap;html=1;fillColor=#e1d5e7;strokeColor=#9673a6;fontColor=#000000;" parent="1" vertex="1"><mxGeometry x="200" y="760" width="160" height="40" as="geometry"/></mxCell><mxCell id="7xXleIvDm7jgAc_pziCA-38" style="edgeStyle=orthogonalEdgeStyle;rounded=0;orthogonalLoop=1;jettySize=auto;html=1;exitX=0.5;exitY=1;exitDx=0;exitDy=0;entryX=0;entryY=0.5;entryDx=0;entryDy=0;fontColor=#000000;" parent="1" source="7xXleIvDm7jgAc_pziCA-9" target="7xXleIvDm7jgAc_pziCA-14" edge="1"><mxGeometry relative="1" as="geometry"/></mxCell><mxCell id="7xXleIvDm7jgAc_pziCA-101" style="edgeStyle=orthogonalEdgeStyle;rounded=0;orthogonalLoop=1;jettySize=auto;html=1;exitX=1;exitY=0.5;exitDx=0;exitDy=0;entryX=0;entryY=0.5;entryDx=0;entryDy=0;fontColor=#000000;" parent="1" source="7xXleIvDm7jgAc_pziCA-9" target="7xXleIvDm7jgAc_pziCA-94" edge="1"><mxGeometry relative="1" as="geometry"><Array as="points"><mxPoint x="520" y="1020"/><mxPoint x="520" y="1070"/></Array></mxGeometry></mxCell><mxCell id="V-SNPXjp-S1AOhE5Q4zP-15" style="edgeStyle=orthogonalEdgeStyle;rounded=0;orthogonalLoop=1;jettySize=auto;html=1;exitX=0.25;exitY=1;exitDx=0;exitDy=0;entryX=0;entryY=0.5;entryDx=0;entryDy=0;fontColor=#000000;" parent="1" source="7xXleIvDm7jgAc_pziCA-9" target="V-SNPXjp-S1AOhE5Q4zP-14" edge="1"><mxGeometry relative="1" as="geometry"/></mxCell><mxCell id="7xXleIvDm7jgAc_pziCA-9" value="Livestream" style="rounded=1;whiteSpace=wrap;html=1;fillColor=#e1d5e7;strokeColor=#9673a6;fontColor=#000000;" parent="1" vertex="1"><mxGeometry x="200" y="1000" width="160" height="40" as="geometry"/></mxCell><mxCell id="7xXleIvDm7jgAc_pziCA-10" value="Ministries" style="rounded=1;whiteSpace=wrap;html=1;" parent="1" vertex="1"><mxGeometry x="200" y="680" width="160" height="40" as="geometry"/></mxCell><mxCell id="7xXleIvDm7jgAc_pziCA-140" style="edgeStyle=orthogonalEdgeStyle;rounded=0;orthogonalLoop=1;jettySize=auto;html=1;exitX=0.5;exitY=1;exitDx=0;exitDy=0;entryX=0;entryY=0.5;entryDx=0;entryDy=0;fontColor=#000000;" parent="1" source="7xXleIvDm7jgAc_pziCA-13" target="7xXleIvDm7jgAc_pziCA-17" edge="1"><mxGeometry relative="1" as="geometry"/></mxCell><mxCell id="V-SNPXjp-S1AOhE5Q4zP-19" style="edgeStyle=orthogonalEdgeStyle;rounded=0;orthogonalLoop=1;jettySize=auto;html=1;exitX=1;exitY=0.5;exitDx=0;exitDy=0;entryX=0;entryY=0.5;entryDx=0;entryDy=0;fontColor=#000000;" parent="1" source="7xXleIvDm7jgAc_pziCA-13" target="7xXleIvDm7jgAc_pziCA-179" edge="1"><mxGeometry relative="1" as="geometry"/></mxCell><mxCell id="7xXleIvDm7jgAc_pziCA-13" value="Online Store - Shop" style="rounded=1;whiteSpace=wrap;html=1;fillColor=#e1d5e7;strokeColor=#9673a6;fontColor=#000000;" parent="1" vertex="1"><mxGeometry x="210" y="1330" width="160" height="40" as="geometry"/></mxCell><mxCell id="7xXleIvDm7jgAc_pziCA-102" style="edgeStyle=orthogonalEdgeStyle;rounded=0;orthogonalLoop=1;jettySize=auto;html=1;exitX=1;exitY=0.5;exitDx=0;exitDy=0;entryX=0;entryY=0.5;entryDx=0;entryDy=0;fontColor=#000000;" parent="1" source="7xXleIvDm7jgAc_pziCA-14" target="7xXleIvDm7jgAc_pziCA-94" edge="1"><mxGeometry relative="1" as="geometry"><Array as="points"><mxPoint x="520" y="1100"/><mxPoint x="520" y="1070"/></Array></mxGeometry></mxCell><mxCell id="V-SNPXjp-S1AOhE5Q4zP-17" style="edgeStyle=orthogonalEdgeStyle;rounded=0;orthogonalLoop=1;jettySize=auto;html=1;exitX=1;exitY=1;exitDx=0;exitDy=0;entryX=0;entryY=0.5;entryDx=0;entryDy=0;fontColor=#000000;" parent="1" source="7xXleIvDm7jgAc_pziCA-14" target="V-SNPXjp-S1AOhE5Q4zP-16" edge="1"><mxGeometry relative="1" as="geometry"/></mxCell><mxCell id="7xXleIvDm7jgAc_pziCA-14" value="Archive by MM/YYYY" style="rounded=1;whiteSpace=wrap;html=1;fillColor=#e1d5e7;strokeColor=#9673a6;fontColor=#000000;" parent="1" vertex="1"><mxGeometry x="320" y="1080" width="160" height="40" as="geometry"/></mxCell><mxCell id="7xXleIvDm7jgAc_pziCA-16" value="Grow (blog)" style="rounded=1;whiteSpace=wrap;html=1;fillColor=#d5e8d4;strokeColor=#82b366;" parent="1" vertex="1"><mxGeometry x="210" y="2210" width="160" height="40" as="geometry"/></mxCell><mxCell id="7xXleIvDm7jgAc_pziCA-141" style="edgeStyle=orthogonalEdgeStyle;rounded=0;orthogonalLoop=1;jettySize=auto;html=1;exitX=0.5;exitY=1;exitDx=0;exitDy=0;entryX=0;entryY=0.5;entryDx=0;entryDy=0;fontColor=#000000;" parent="1" source="7xXleIvDm7jgAc_pziCA-17" target="7xXleIvDm7jgAc_pziCA-89" edge="1"><mxGeometry relative="1" as="geometry"/></mxCell><mxCell id="V-SNPXjp-S1AOhE5Q4zP-21" style="edgeStyle=orthogonalEdgeStyle;rounded=0;orthogonalLoop=1;jettySize=auto;html=1;exitX=1;exitY=0.5;exitDx=0;exitDy=0;entryX=-0.017;entryY=0.724;entryDx=0;entryDy=0;entryPerimeter=0;fontColor=#000000;" parent="1" source="7xXleIvDm7jgAc_pziCA-17" target="V-SNPXjp-S1AOhE5Q4zP-20" edge="1"><mxGeometry relative="1" as="geometry"/></mxCell><mxCell id="7xXleIvDm7jgAc_pziCA-17" value="Product" style="rounded=1;whiteSpace=wrap;html=1;fillColor=#e1d5e7;strokeColor=#9673a6;fontColor=#000000;" parent="1" vertex="1"><mxGeometry x="330" y="1410" width="160" height="40" as="geometry"/></mxCell><mxCell id="7xXleIvDm7jgAc_pziCA-18" value="Support Our Mission" style="rounded=1;whiteSpace=wrap;html=1;fillColor=#d5e8d4;strokeColor=#82b366;" parent="1" vertex="1"><mxGeometry x="210" y="2370" width="160" height="40" as="geometry"/></mxCell><mxCell id="7xXleIvDm7jgAc_pziCA-168" style="edgeStyle=orthogonalEdgeStyle;rounded=0;orthogonalLoop=1;jettySize=auto;html=1;exitX=1;exitY=0.5;exitDx=0;exitDy=0;entryX=0;entryY=0.5;entryDx=0;entryDy=0;" parent="1" source="7xXleIvDm7jgAc_pziCA-19" target="7xXleIvDm7jgAc_pziCA-150" edge="1"><mxGeometry relative="1" as="geometry"/></mxCell><mxCell id="L4_pr1pYZJ6r3tZRuc8D-58" style="edgeStyle=orthogonalEdgeStyle;rounded=0;orthogonalLoop=1;jettySize=auto;html=1;exitX=0.75;exitY=0;exitDx=0;exitDy=0;entryX=-0.014;entryY=0.135;entryDx=0;entryDy=0;entryPerimeter=0;" parent="1" source="7xXleIvDm7jgAc_pziCA-19" target="L4_pr1pYZJ6r3tZRuc8D-57" edge="1"><mxGeometry relative="1" as="geometry"><Array as="points"><mxPoint x="330" y="2420"/><mxPoint x="640" y="2420"/><mxPoint x="640" y="2347"/></Array></mxGeometry></mxCell><mxCell id="7xXleIvDm7jgAc_pziCA-19" value="Give (donations)" style="rounded=1;whiteSpace=wrap;html=1;fillColor=#e1d5e7;strokeColor=#9673a6;fontColor=#000000;" parent="1" vertex="1"><mxGeometry x="210" y="2450" width="160" height="40" as="geometry"/></mxCell><mxCell id="7xXleIvDm7jgAc_pziCA-20" value="Contact" style="rounded=1;whiteSpace=wrap;html=1;fillColor=#d5e8d4;strokeColor=#82b366;" parent="1" vertex="1"><mxGeometry x="210" y="2690" width="160" height="40" as="geometry"/></mxCell><mxCell id="7xXleIvDm7jgAc_pziCA-21" value="Privacy Policy" style="rounded=1;whiteSpace=wrap;html=1;fillColor=#d5e8d4;strokeColor=#82b366;" parent="1" vertex="1"><mxGeometry x="210" y="2770" width="160" height="40" as="geometry"/></mxCell><mxCell id="7xXleIvDm7jgAc_pziCA-22" value="Terms of Use" style="rounded=1;whiteSpace=wrap;html=1;" parent="1" vertex="1"><mxGeometry x="210" y="2850" width="160" height="40" as="geometry"/></mxCell><mxCell id="7xXleIvDm7jgAc_pziCA-135" style="edgeStyle=orthogonalEdgeStyle;rounded=0;orthogonalLoop=1;jettySize=auto;html=1;exitX=0.5;exitY=1;exitDx=0;exitDy=0;entryX=0;entryY=0.5;entryDx=0;entryDy=0;" parent="1" source="7xXleIvDm7jgAc_pziCA-23" target="7xXleIvDm7jgAc_pziCA-24" edge="1"><mxGeometry relative="1" as="geometry"/></mxCell><mxCell id="7xXleIvDm7jgAc_pziCA-136" style="edgeStyle=orthogonalEdgeStyle;rounded=0;orthogonalLoop=1;jettySize=auto;html=1;exitX=0.5;exitY=1;exitDx=0;exitDy=0;entryX=0;entryY=0.5;entryDx=0;entryDy=0;" parent="1" source="7xXleIvDm7jgAc_pziCA-23" target="7xXleIvDm7jgAc_pziCA-112" edge="1"><mxGeometry relative="1" as="geometry"/></mxCell><mxCell id="7xXleIvDm7jgAc_pziCA-137" style="edgeStyle=orthogonalEdgeStyle;rounded=0;orthogonalLoop=1;jettySize=auto;html=1;exitX=0.5;exitY=1;exitDx=0;exitDy=0;entryX=0;entryY=0.5;entryDx=0;entryDy=0;" parent="1" source="7xXleIvDm7jgAc_pziCA-23" target="7xXleIvDm7jgAc_pziCA-119" edge="1"><mxGeometry relative="1" as="geometry"/></mxCell><mxCell id="7xXleIvDm7jgAc_pziCA-138" style="edgeStyle=orthogonalEdgeStyle;rounded=0;orthogonalLoop=1;jettySize=auto;html=1;exitX=0.5;exitY=1;exitDx=0;exitDy=0;entryX=0;entryY=0.5;entryDx=0;entryDy=0;" parent="1" source="7xXleIvDm7jgAc_pziCA-23" target="7xXleIvDm7jgAc_pziCA-121" edge="1"><mxGeometry relative="1" as="geometry"/></mxCell><mxCell id="7xXleIvDm7jgAc_pziCA-261" style="edgeStyle=orthogonalEdgeStyle;rounded=0;orthogonalLoop=1;jettySize=auto;html=1;exitX=1;exitY=0.5;exitDx=0;exitDy=0;entryX=0;entryY=0.5;entryDx=0;entryDy=0;" parent="1" source="7xXleIvDm7jgAc_pziCA-23" target="7xXleIvDm7jgAc_pziCA-184" edge="1"><mxGeometry relative="1" as="geometry"/></mxCell><mxCell id="7xXleIvDm7jgAc_pziCA-23" value="User Account" style="rounded=1;whiteSpace=wrap;html=1;fillColor=#e1d5e7;strokeColor=#9673a6;fontColor=#000000;" parent="1" vertex="1"><mxGeometry x="210" y="1730" width="160" height="40" as="geometry"/></mxCell><mxCell id="L4_pr1pYZJ6r3tZRuc8D-38" style="edgeStyle=orthogonalEdgeStyle;rounded=0;orthogonalLoop=1;jettySize=auto;html=1;exitX=0.5;exitY=1;exitDx=0;exitDy=0;entryX=0;entryY=0.5;entryDx=0;entryDy=0;" parent="1" source="7xXleIvDm7jgAc_pziCA-24" target="L4_pr1pYZJ6r3tZRuc8D-37" edge="1"><mxGeometry relative="1" as="geometry"/></mxCell><mxCell id="c5qxtLoEuRJrSgBG_Tk3-7" style="edgeStyle=orthogonalEdgeStyle;rounded=0;orthogonalLoop=1;jettySize=auto;html=1;exitX=1;exitY=0.5;exitDx=0;exitDy=0;entryX=0;entryY=0.5;entryDx=0;entryDy=0;" parent="1" source="7xXleIvDm7jgAc_pziCA-24" target="c5qxtLoEuRJrSgBG_Tk3-5" edge="1"><mxGeometry relative="1" as="geometry"/></mxCell><mxCell id="7xXleIvDm7jgAc_pziCA-24" value="Login" style="rounded=1;whiteSpace=wrap;html=1;fillColor=#b0e3e6;strokeColor=#0e8088;sketch=0;fontColor=#000000;" parent="1" vertex="1"><mxGeometry x="330" y="1810" width="160" height="40" as="geometry"/></mxCell><mxCell id="7xXleIvDm7jgAc_pziCA-26" value="Order History" style="rounded=1;whiteSpace=wrap;html=1;fillColor=#e1d5e7;strokeColor=#9673a6;" parent="1" vertex="1"><mxGeometry x="330" y="2000" width="160" height="40" as="geometry"/></mxCell><mxCell id="7xXleIvDm7jgAc_pziCA-27" value="Edit Recurring Donation" style="rounded=1;whiteSpace=wrap;html=1;fillColor=#e1d5e7;strokeColor=#9673a6;" parent="1" vertex="1"><mxGeometry x="450" y="2080" width="160" height="40" as="geometry"/></mxCell><mxCell id="7xXleIvDm7jgAc_pziCA-28" value="Edit User Info" style="rounded=1;whiteSpace=wrap;html=1;fillColor=#e1d5e7;strokeColor=#9673a6;" parent="1" vertex="1"><mxGeometry x="330" y="2160" width="160" height="40" as="geometry"/></mxCell><mxCell id="7xXleIvDm7jgAc_pziCA-51" value="Info Pages" style="rounded=1;whiteSpace=wrap;html=1;" parent="1" vertex="1"><mxGeometry x="-160" y="370" width="160" height="40" as="geometry"/></mxCell><mxCell id="7xXleIvDm7jgAc_pziCA-98" value="" style="edgeStyle=orthogonalEdgeStyle;rounded=0;orthogonalLoop=1;jettySize=auto;html=1;" parent="1" source="7xXleIvDm7jgAc_pziCA-61" target="7xXleIvDm7jgAc_pziCA-95" edge="1"><mxGeometry relative="1" as="geometry"/></mxCell><mxCell id="7xXleIvDm7jgAc_pziCA-61" value="The fields in the registration form will be fixed for all events." style="rounded=0;whiteSpace=wrap;html=1;fillColor=#dae8fc;strokeColor=#6c8ebf;fontColor=#000000;" parent="1" vertex="1"><mxGeometry x="560" y="830" width="120" height="80" as="geometry"/></mxCell><mxCell id="7xXleIvDm7jgAc_pziCA-71" style="edgeStyle=orthogonalEdgeStyle;rounded=0;orthogonalLoop=1;jettySize=auto;html=1;exitX=1;exitY=0.5;exitDx=0;exitDy=0;" parent="1" source="7xXleIvDm7jgAc_pziCA-62" target="7xXleIvDm7jgAc_pziCA-63" edge="1"><mxGeometry relative="1" as="geometry"/></mxCell><mxCell id="7xXleIvDm7jgAc_pziCA-72" style="edgeStyle=orthogonalEdgeStyle;rounded=0;orthogonalLoop=1;jettySize=auto;html=1;entryX=0;entryY=0.5;entryDx=0;entryDy=0;" parent="1" source="7xXleIvDm7jgAc_pziCA-62" target="7xXleIvDm7jgAc_pziCA-65" edge="1"><mxGeometry relative="1" as="geometry"/></mxCell><mxCell id="7xXleIvDm7jgAc_pziCA-73" style="edgeStyle=orthogonalEdgeStyle;rounded=0;orthogonalLoop=1;jettySize=auto;html=1;exitX=1;exitY=0.5;exitDx=0;exitDy=0;entryX=0;entryY=0.5;entryDx=0;entryDy=0;" parent="1" source="7xXleIvDm7jgAc_pziCA-62" target="7xXleIvDm7jgAc_pziCA-64" edge="1"><mxGeometry relative="1" as="geometry"/></mxCell><mxCell id="7xXleIvDm7jgAc_pziCA-62" value="There will be three types of events" style="rounded=0;whiteSpace=wrap;html=1;fillColor=#dae8fc;strokeColor=#6c8ebf;fontColor=#000000;" parent="1" vertex="1"><mxGeometry x="840" y="830" width="120" height="80" as="geometry"/></mxCell><mxCell id="7xXleIvDm7jgAc_pziCA-63" value="Without registering" style="rounded=0;whiteSpace=wrap;html=1;fillColor=#dae8fc;strokeColor=#6c8ebf;fontColor=#000000;" parent="1" vertex="1"><mxGeometry x="1000" y="840" width="120" height="40" as="geometry"/></mxCell><mxCell id="7xXleIvDm7jgAc_pziCA-84" style="edgeStyle=orthogonalEdgeStyle;rounded=0;orthogonalLoop=1;jettySize=auto;html=1;exitX=1;exitY=0.5;exitDx=0;exitDy=0;entryX=0;entryY=0.75;entryDx=0;entryDy=0;" parent="1" source="7xXleIvDm7jgAc_pziCA-64" target="7xXleIvDm7jgAc_pziCA-82" edge="1"><mxGeometry relative="1" as="geometry"/></mxCell><mxCell id="7xXleIvDm7jgAc_pziCA-64" value="Paid registration one price in one payment" style="rounded=0;whiteSpace=wrap;html=1;fillColor=#dae8fc;strokeColor=#6c8ebf;fontColor=#000000;" parent="1" vertex="1"><mxGeometry x="1000" y="940" width="120" height="40" as="geometry"/></mxCell><mxCell id="7xXleIvDm7jgAc_pziCA-85" style="edgeStyle=orthogonalEdgeStyle;rounded=0;orthogonalLoop=1;jettySize=auto;html=1;exitX=1;exitY=0.5;exitDx=0;exitDy=0;entryX=0;entryY=0.25;entryDx=0;entryDy=0;" parent="1" source="7xXleIvDm7jgAc_pziCA-65" target="7xXleIvDm7jgAc_pziCA-82" edge="1"><mxGeometry relative="1" as="geometry"/></mxCell><mxCell id="7xXleIvDm7jgAc_pziCA-65" value="Free registration" style="rounded=0;whiteSpace=wrap;html=1;fillColor=#dae8fc;strokeColor=#6c8ebf;fontColor=#000000;" parent="1" vertex="1"><mxGeometry x="1000" y="890" width="120" height="40" as="geometry"/></mxCell><mxCell id="7xXleIvDm7jgAc_pziCA-75" style="edgeStyle=orthogonalEdgeStyle;rounded=0;orthogonalLoop=1;jettySize=auto;html=1;exitX=0.5;exitY=1;exitDx=0;exitDy=0;entryX=0.5;entryY=1;entryDx=0;entryDy=0;" parent="1" source="7xXleIvDm7jgAc_pziCA-88" target="7xXleIvDm7jgAc_pziCA-67" edge="1"><mxGeometry relative="1" as="geometry"/></mxCell><mxCell id="7xXleIvDm7jgAc_pziCA-93" value="" style="edgeStyle=orthogonalEdgeStyle;rounded=0;orthogonalLoop=1;jettySize=auto;html=1;" parent="1" source="7xXleIvDm7jgAc_pziCA-66" target="7xXleIvDm7jgAc_pziCA-88" edge="1"><mxGeometry relative="1" as="geometry"/></mxCell><mxCell id="7xXleIvDm7jgAc_pziCA-66" value="Payment will be only through Neon Pay" style="rounded=0;whiteSpace=wrap;html=1;fillColor=#dae8fc;strokeColor=#6c8ebf;fontColor=#000000;" parent="1" vertex="1"><mxGeometry x="1320" y="890" width="120" height="90" as="geometry"/></mxCell><mxCell id="7xXleIvDm7jgAc_pziCA-67" value="Thank You Page" style="rounded=1;whiteSpace=wrap;html=1;" parent="1" vertex="1"><mxGeometry x="440" y="920" width="160" height="40" as="geometry"/></mxCell><mxCell id="7xXleIvDm7jgAc_pziCA-76" value="&lt;div&gt;The page will&lt;/div&gt;&lt;div&gt;&lt;ul&gt;&lt;li style=&quot;text-align: left;&quot;&gt;picture&lt;/li&gt;&lt;li style=&quot;text-align: left;&quot;&gt;title&lt;/li&gt;&lt;li style=&quot;text-align: left;&quot;&gt;text&lt;/li&gt;&lt;li style=&quot;text-align: left;&quot;&gt;datetime&lt;/li&gt;&lt;li style=&quot;text-align: left;&quot;&gt;price&lt;/li&gt;&lt;li style=&quot;text-align: left;&quot;&gt;user fields&lt;/li&gt;&lt;li style=&quot;text-align: left;&quot;&gt;payment fields&lt;/li&gt;&lt;/ul&gt;&lt;/div&gt;" style="rounded=0;whiteSpace=wrap;html=1;fillColor=#fff2cc;strokeColor=#d6b656;align=center;fontColor=#000000;" parent="1" vertex="1"><mxGeometry x="560" y="660" width="120" height="140" as="geometry"/></mxCell><mxCell id="WkCh3vwjCoDEeLmgxas2-4" value="" style="edgeStyle=orthogonalEdgeStyle;rounded=0;orthogonalLoop=1;jettySize=auto;html=1;" parent="1" source="7xXleIvDm7jgAc_pziCA-77" target="7xXleIvDm7jgAc_pziCA-78" edge="1"><mxGeometry relative="1" as="geometry"/></mxCell><mxCell id="7xXleIvDm7jgAc_pziCA-77" value="The event can last for several days." style="rounded=0;whiteSpace=wrap;html=1;fillColor=#dae8fc;strokeColor=#6c8ebf;fontColor=#000000;" parent="1" vertex="1"><mxGeometry x="640" y="550" width="120" height="80" as="geometry"/></mxCell><mxCell id="WkCh3vwjCoDEeLmgxas2-5" value="" style="edgeStyle=orthogonalEdgeStyle;rounded=0;orthogonalLoop=1;jettySize=auto;html=1;" parent="1" source="7xXleIvDm7jgAc_pziCA-78" target="WkCh3vwjCoDEeLmgxas2-1" edge="1"><mxGeometry relative="1" as="geometry"/></mxCell><mxCell id="7xXleIvDm7jgAc_pziCA-78" value="&lt;p data-pm-slice=&quot;1 1 [&amp;quot;orderedList&amp;quot;,null,&amp;quot;listItem&amp;quot;,null]&quot;&gt;There will be recurring events.&lt;/p&gt;" style="rounded=0;whiteSpace=wrap;html=1;fillColor=#dae8fc;strokeColor=#6c8ebf;fontColor=#000000;" parent="1" vertex="1"><mxGeometry x="800" y="550" width="120" height="80" as="geometry"/></mxCell><mxCell id="7xXleIvDm7jgAc_pziCA-83" value="" style="edgeStyle=orthogonalEdgeStyle;rounded=0;orthogonalLoop=1;jettySize=auto;html=1;" parent="1" source="7xXleIvDm7jgAc_pziCA-82" target="7xXleIvDm7jgAc_pziCA-66" edge="1"><mxGeometry relative="1" as="geometry"/></mxCell><mxCell id="7xXleIvDm7jgAc_pziCA-82" value="When you register, you must create an account" style="rounded=0;whiteSpace=wrap;html=1;fillColor=#dae8fc;strokeColor=#6c8ebf;fontColor=#000000;" parent="1" vertex="1"><mxGeometry x="1160" y="890" width="120" height="90" as="geometry"/></mxCell><mxCell id="7xXleIvDm7jgAc_pziCA-86" value="&lt;div&gt;The page will&lt;/div&gt;&lt;div&gt;&lt;ul&gt;&lt;li style=&quot;text-align: left;&quot;&gt;calendar and list view&lt;/li&gt;&lt;li style=&quot;text-align: left;&quot;&gt;ability to filter by category&lt;/li&gt;&lt;li style=&quot;text-align: left;&quot;&gt;ability to search by title and text&lt;/li&gt;&lt;li style=&quot;text-align: left;&quot;&gt;link to the event name opens the event page&lt;/li&gt;&lt;/ul&gt;&lt;/div&gt;" style="rounded=0;whiteSpace=wrap;html=1;fillColor=#fff2cc;strokeColor=#d6b656;align=center;fontColor=#000000;" parent="1" vertex="1"><mxGeometry x="750" y="660" width="160" height="150" as="geometry"/></mxCell><mxCell id="7xXleIvDm7jgAc_pziCA-88" value="You will need to send a email, you need a text." style="rounded=0;whiteSpace=wrap;html=1;fillColor=#f8cecc;strokeColor=#b85450;sketch=0;fontColor=#000000;" parent="1" vertex="1"><mxGeometry x="1470" y="890" width="120" height="90" as="geometry"/></mxCell><mxCell id="7xXleIvDm7jgAc_pziCA-142" style="edgeStyle=orthogonalEdgeStyle;rounded=0;orthogonalLoop=1;jettySize=auto;html=1;exitX=0.5;exitY=1;exitDx=0;exitDy=0;entryX=0;entryY=0.5;entryDx=0;entryDy=0;" parent="1" source="7xXleIvDm7jgAc_pziCA-89" target="7xXleIvDm7jgAc_pziCA-90" edge="1"><mxGeometry relative="1" as="geometry"/></mxCell><mxCell id="V-SNPXjp-S1AOhE5Q4zP-30" style="edgeStyle=orthogonalEdgeStyle;rounded=0;orthogonalLoop=1;jettySize=auto;html=1;exitX=1;exitY=0.5;exitDx=0;exitDy=0;entryX=-0.006;entryY=0.895;entryDx=0;entryDy=0;entryPerimeter=0;fontColor=#000000;" parent="1" source="7xXleIvDm7jgAc_pziCA-89" target="V-SNPXjp-S1AOhE5Q4zP-29" edge="1"><mxGeometry relative="1" as="geometry"/></mxCell><mxCell id="7xXleIvDm7jgAc_pziCA-89" value="Cart" style="rounded=1;whiteSpace=wrap;html=1;fillColor=#e1d5e7;strokeColor=#9673a6;fontColor=#000000;" parent="1" vertex="1"><mxGeometry x="450" y="1490" width="160" height="40" as="geometry"/></mxCell><mxCell id="7xXleIvDm7jgAc_pziCA-174" value="" style="edgeStyle=orthogonalEdgeStyle;rounded=0;orthogonalLoop=1;jettySize=auto;html=1;" parent="1" source="7xXleIvDm7jgAc_pziCA-90" target="7xXleIvDm7jgAc_pziCA-171" edge="1"><mxGeometry relative="1" as="geometry"/></mxCell><mxCell id="V-SNPXjp-S1AOhE5Q4zP-32" style="edgeStyle=orthogonalEdgeStyle;rounded=0;orthogonalLoop=1;jettySize=auto;html=1;exitX=0.75;exitY=0;exitDx=0;exitDy=0;entryX=0.5;entryY=1;entryDx=0;entryDy=0;fontColor=#000000;" parent="1" source="7xXleIvDm7jgAc_pziCA-90" target="V-SNPXjp-S1AOhE5Q4zP-31" edge="1"><mxGeometry relative="1" as="geometry"><Array as="points"><mxPoint x="690" y="1540"/><mxPoint x="980" y="1540"/></Array></mxGeometry></mxCell><mxCell id="7xXleIvDm7jgAc_pziCA-90" value="Checkout" style="rounded=1;whiteSpace=wrap;html=1;fillColor=#e1d5e7;strokeColor=#9673a6;fontColor=#000000;" parent="1" vertex="1"><mxGeometry x="570" y="1570" width="160" height="40" as="geometry"/></mxCell><mxCell id="7xXleIvDm7jgAc_pziCA-91" value="Thank You Page" style="rounded=1;whiteSpace=wrap;html=1;" parent="1" vertex="1"><mxGeometry x="690" y="1650" width="160" height="40" as="geometry"/></mxCell><mxCell id="7xXleIvDm7jgAc_pziCA-170" value="" style="edgeStyle=orthogonalEdgeStyle;rounded=0;orthogonalLoop=1;jettySize=auto;html=1;fontColor=#000000;" parent="1" source="7xXleIvDm7jgAc_pziCA-94" target="7xXleIvDm7jgAc_pziCA-128" edge="1"><mxGeometry relative="1" as="geometry"/></mxCell><mxCell id="7xXleIvDm7jgAc_pziCA-94" value="Available to everyone without any conditions." style="rounded=0;whiteSpace=wrap;html=1;fillColor=#dae8fc;strokeColor=#6c8ebf;fontColor=#000000;" parent="1" vertex="1"><mxGeometry x="560" y="1020" width="120" height="100" as="geometry"/></mxCell><mxCell id="7xXleIvDm7jgAc_pziCA-99" value="" style="edgeStyle=orthogonalEdgeStyle;rounded=0;orthogonalLoop=1;jettySize=auto;html=1;" parent="1" source="7xXleIvDm7jgAc_pziCA-95" target="7xXleIvDm7jgAc_pziCA-62" edge="1"><mxGeometry relative="1" as="geometry"/></mxCell><mxCell id="7xXleIvDm7jgAc_pziCA-95" value="Will buy one or multiple ticket at a time" style="rounded=0;whiteSpace=wrap;html=1;fillColor=#dae8fc;strokeColor=#6c8ebf;fontColor=#000000;" parent="1" vertex="1"><mxGeometry x="700" y="830" width="120" height="80" as="geometry"/></mxCell><mxCell id="7xXleIvDm7jgAc_pziCA-105" value="Questions" style="rounded=0;whiteSpace=wrap;html=1;fillColor=#f8cecc;strokeColor=#b85450;fontColor=#000000;" parent="1" vertex="1"><mxGeometry x="-160" y="470" width="160" height="40" as="geometry"/></mxCell><mxCell id="7xXleIvDm7jgAc_pziCA-106" value="General description of the page" style="rounded=0;whiteSpace=wrap;html=1;fillColor=#fff2cc;strokeColor=#d6b656;fontColor=#000000;" parent="1" vertex="1"><mxGeometry x="-160" y="520" width="160" height="40" as="geometry"/></mxCell><mxCell id="7xXleIvDm7jgAc_pziCA-108" value="Functional" style="rounded=0;whiteSpace=wrap;html=1;fillColor=#dae8fc;strokeColor=#6c8ebf;fontColor=#000000;" parent="1" vertex="1"><mxGeometry x="-160" y="570" width="160" height="40" as="geometry"/></mxCell><mxCell id="7xXleIvDm7jgAc_pziCA-109" value="Thank You Page for one-time" style="rounded=1;whiteSpace=wrap;html=1;" parent="1" vertex="1"><mxGeometry x="330" y="2530" width="160" height="40" as="geometry"/></mxCell><mxCell id="7xXleIvDm7jgAc_pziCA-259" value="" style="edgeStyle=orthogonalEdgeStyle;rounded=0;orthogonalLoop=1;jettySize=auto;html=1;" parent="1" source="7xXleIvDm7jgAc_pziCA-112" target="7xXleIvDm7jgAc_pziCA-197" edge="1"><mxGeometry relative="1" as="geometry"/></mxCell><mxCell id="c5qxtLoEuRJrSgBG_Tk3-17" style="edgeStyle=orthogonalEdgeStyle;rounded=0;orthogonalLoop=1;jettySize=auto;html=1;exitX=0.5;exitY=1;exitDx=0;exitDy=0;entryX=0.5;entryY=1;entryDx=0;entryDy=0;" parent="1" source="7xXleIvDm7jgAc_pziCA-112" target="c5qxtLoEuRJrSgBG_Tk3-16" edge="1"><mxGeometry relative="1" as="geometry"><Array as="points"><mxPoint x="410" y="1980"/><mxPoint x="520" y="1980"/><mxPoint x="520" y="2010"/><mxPoint x="1020" y="2010"/></Array></mxGeometry></mxCell><mxCell id="7xXleIvDm7jgAc_pziCA-112" value="Registration" style="rounded=1;whiteSpace=wrap;html=1;fillColor=#e1d5e7;strokeColor=#9673a6;fontColor=#000000;" parent="1" vertex="1"><mxGeometry x="330" y="1920" width="160" height="40" as="geometry"/></mxCell><mxCell id="7xXleIvDm7jgAc_pziCA-113" value="Order History" style="rounded=1;whiteSpace=wrap;html=1;fillColor=#e1d5e7;strokeColor=#9673a6;" parent="1" vertex="1"><mxGeometry x="330" y="2000" width="160" height="40" as="geometry"/></mxCell><mxCell id="7xXleIvDm7jgAc_pziCA-114" value="Edit Recurring Donation" style="rounded=1;whiteSpace=wrap;html=1;fillColor=#e1d5e7;strokeColor=#9673a6;" parent="1" vertex="1"><mxGeometry x="450" y="2080" width="160" height="40" as="geometry"/></mxCell><mxCell id="7xXleIvDm7jgAc_pziCA-115" value="Edit User Info" style="rounded=1;whiteSpace=wrap;html=1;fillColor=#e1d5e7;strokeColor=#9673a6;" parent="1" vertex="1"><mxGeometry x="330" y="2160" width="160" height="40" as="geometry"/></mxCell><mxCell id="7xXleIvDm7jgAc_pziCA-139" style="edgeStyle=orthogonalEdgeStyle;rounded=0;orthogonalLoop=1;jettySize=auto;html=1;exitX=0.5;exitY=1;exitDx=0;exitDy=0;entryX=0;entryY=0.5;entryDx=0;entryDy=0;" parent="1" source="7xXleIvDm7jgAc_pziCA-119" target="7xXleIvDm7jgAc_pziCA-120" edge="1"><mxGeometry relative="1" as="geometry"/></mxCell><mxCell id="c5qxtLoEuRJrSgBG_Tk3-15" style="edgeStyle=orthogonalEdgeStyle;rounded=0;orthogonalLoop=1;jettySize=auto;html=1;exitX=1;exitY=0.5;exitDx=0;exitDy=0;entryX=0.5;entryY=1;entryDx=0;entryDy=0;" parent="1" source="7xXleIvDm7jgAc_pziCA-119" target="c5qxtLoEuRJrSgBG_Tk3-14" edge="1"><mxGeometry relative="1" as="geometry"/></mxCell><mxCell id="7xXleIvDm7jgAc_pziCA-119" value="Order History" style="rounded=1;whiteSpace=wrap;html=1;fillColor=#e1d5e7;strokeColor=#9673a6;fontColor=#000000;" parent="1" vertex="1"><mxGeometry x="330" y="2000" width="160" height="40" as="geometry"/></mxCell><mxCell id="L4_pr1pYZJ6r3tZRuc8D-41" style="edgeStyle=orthogonalEdgeStyle;rounded=0;orthogonalLoop=1;jettySize=auto;html=1;exitX=1;exitY=0.5;exitDx=0;exitDy=0;entryX=0;entryY=0.5;entryDx=0;entryDy=0;" parent="1" source="7xXleIvDm7jgAc_pziCA-120" target="L4_pr1pYZJ6r3tZRuc8D-39" edge="1"><mxGeometry relative="1" as="geometry"/></mxCell><mxCell id="L4_pr1pYZJ6r3tZRuc8D-56" style="edgeStyle=orthogonalEdgeStyle;rounded=0;orthogonalLoop=1;jettySize=auto;html=1;exitX=0.75;exitY=0;exitDx=0;exitDy=0;entryX=-0.031;entryY=0.115;entryDx=0;entryDy=0;entryPerimeter=0;" parent="1" source="7xXleIvDm7jgAc_pziCA-120" target="L4_pr1pYZJ6r3tZRuc8D-55" edge="1"><mxGeometry relative="1" as="geometry"><Array as="points"><mxPoint x="570" y="2030"/><mxPoint x="1126" y="2030"/></Array></mxGeometry></mxCell><mxCell id="7xXleIvDm7jgAc_pziCA-120" value="Edit Recurring Donation" style="rounded=1;whiteSpace=wrap;html=1;fillColor=#e1d5e7;strokeColor=#9673a6;fontColor=#000000;" parent="1" vertex="1"><mxGeometry x="450" y="2080" width="160" height="40" as="geometry"/></mxCell><mxCell id="7xXleIvDm7jgAc_pziCA-266" value="" style="edgeStyle=orthogonalEdgeStyle;rounded=0;orthogonalLoop=1;jettySize=auto;html=1;" parent="1" source="7xXleIvDm7jgAc_pziCA-121" target="7xXleIvDm7jgAc_pziCA-189" edge="1"><mxGeometry relative="1" as="geometry"/></mxCell><mxCell id="L4_pr1pYZJ6r3tZRuc8D-52" style="edgeStyle=orthogonalEdgeStyle;rounded=0;orthogonalLoop=1;jettySize=auto;html=1;exitX=0.75;exitY=1;exitDx=0;exitDy=0;entryX=0.5;entryY=1;entryDx=0;entryDy=0;" parent="1" source="7xXleIvDm7jgAc_pziCA-121" target="UJV2R2LUBAMsPxbDvIgO-2" edge="1"><mxGeometry relative="1" as="geometry"/></mxCell><mxCell id="7xXleIvDm7jgAc_pziCA-121" value="Edit User Info" style="rounded=1;whiteSpace=wrap;html=1;fillColor=#e1d5e7;strokeColor=#9673a6;fontColor=#000000;" parent="1" vertex="1"><mxGeometry x="330" y="2160" width="160" height="40" as="geometry"/></mxCell><mxCell id="7xXleIvDm7jgAc_pziCA-122" value="Thank You Page for recurring" style="rounded=1;whiteSpace=wrap;html=1;" parent="1" vertex="1"><mxGeometry x="330" y="2610" width="160" height="40" as="geometry"/></mxCell><mxCell id="7xXleIvDm7jgAc_pziCA-123" value="Feature Pages" style="rounded=1;whiteSpace=wrap;html=1;fillColor=#e1d5e7;strokeColor=#9673a6;fontColor=#000000;" parent="1" vertex="1"><mxGeometry x="-160" y="420" width="160" height="40" as="geometry"/></mxCell><mxCell id="7xXleIvDm7jgAc_pziCA-128" value="API&lt;br&gt;https://livestream.com/" style="rounded=0;whiteSpace=wrap;html=1;fillColor=#dae8fc;strokeColor=#6c8ebf;fontColor=#000000;" parent="1" vertex="1"><mxGeometry x="720" y="1020" width="120" height="100" as="geometry"/></mxCell><mxCell id="7xXleIvDm7jgAc_pziCA-129" value="Support Our Mission" style="rounded=1;whiteSpace=wrap;html=1;" parent="1" vertex="1"><mxGeometry x="210" y="2370" width="160" height="40" as="geometry"/></mxCell><mxCell id="7xXleIvDm7jgAc_pziCA-134" style="edgeStyle=orthogonalEdgeStyle;rounded=0;orthogonalLoop=1;jettySize=auto;html=1;exitX=0.5;exitY=1;exitDx=0;exitDy=0;entryX=0;entryY=0.5;entryDx=0;entryDy=0;" parent="1" source="7xXleIvDm7jgAc_pziCA-130" target="7xXleIvDm7jgAc_pziCA-133" edge="1"><mxGeometry relative="1" as="geometry"/></mxCell><mxCell id="7xXleIvDm7jgAc_pziCA-130" value="Grow (blog)" style="rounded=1;whiteSpace=wrap;html=1;" parent="1" vertex="1"><mxGeometry x="210" y="2210" width="160" height="40" as="geometry"/></mxCell><mxCell id="7xXleIvDm7jgAc_pziCA-131" value="Contact" style="rounded=1;whiteSpace=wrap;html=1;" parent="1" vertex="1"><mxGeometry x="210" y="2690" width="160" height="40" as="geometry"/></mxCell><mxCell id="7xXleIvDm7jgAc_pziCA-132" value="Privacy Policy" style="rounded=1;whiteSpace=wrap;html=1;" parent="1" vertex="1"><mxGeometry x="210" y="2770" width="160" height="40" as="geometry"/></mxCell><mxCell id="7xXleIvDm7jgAc_pziCA-133" value="Single Post" style="rounded=1;whiteSpace=wrap;html=1;" parent="1" vertex="1"><mxGeometry x="330" y="2290" width="160" height="40" as="geometry"/></mxCell><mxCell id="7xXleIvDm7jgAc_pziCA-209" value="" style="edgeStyle=orthogonalEdgeStyle;rounded=0;orthogonalLoop=1;jettySize=auto;html=1;" parent="1" source="7xXleIvDm7jgAc_pziCA-144" target="7xXleIvDm7jgAc_pziCA-183" edge="1"><mxGeometry relative="1" as="geometry"/></mxCell><mxCell id="7xXleIvDm7jgAc_pziCA-144" value="&lt;p data-pm-slice=&quot;1 1 [&amp;quot;orderedList&amp;quot;,null,&amp;quot;listItem&amp;quot;,null]&quot;&gt;There will be&amp;nbsp;recurring donations&lt;br&gt;&lt;/p&gt;" style="rounded=0;whiteSpace=wrap;html=1;fillColor=#dae8fc;strokeColor=#6c8ebf;fontColor=#000000;" parent="1" vertex="1"><mxGeometry x="730" y="2370" width="120" height="80" as="geometry"/></mxCell><mxCell id="7xXleIvDm7jgAc_pziCA-167" value="" style="edgeStyle=orthogonalEdgeStyle;rounded=0;orthogonalLoop=1;jettySize=auto;html=1;" parent="1" source="7xXleIvDm7jgAc_pziCA-148" target="7xXleIvDm7jgAc_pziCA-151" edge="1"><mxGeometry relative="1" as="geometry"/></mxCell><mxCell id="7xXleIvDm7jgAc_pziCA-148" value="There will be one-time donations" style="rounded=0;whiteSpace=wrap;html=1;fillColor=#dae8fc;strokeColor=#6c8ebf;fontColor=#000000;" parent="1" vertex="1"><mxGeometry x="730" y="2490" width="120" height="80" as="geometry"/></mxCell><mxCell id="7xXleIvDm7jgAc_pziCA-165" style="edgeStyle=orthogonalEdgeStyle;rounded=0;orthogonalLoop=1;jettySize=auto;html=1;exitX=1;exitY=0.75;exitDx=0;exitDy=0;entryX=0;entryY=0.5;entryDx=0;entryDy=0;" parent="1" source="7xXleIvDm7jgAc_pziCA-149" target="7xXleIvDm7jgAc_pziCA-148" edge="1"><mxGeometry relative="1" as="geometry"/></mxCell><mxCell id="7xXleIvDm7jgAc_pziCA-166" style="edgeStyle=orthogonalEdgeStyle;rounded=0;orthogonalLoop=1;jettySize=auto;html=1;exitX=1;exitY=0.25;exitDx=0;exitDy=0;entryX=0;entryY=0.5;entryDx=0;entryDy=0;" parent="1" source="7xXleIvDm7jgAc_pziCA-149" target="7xXleIvDm7jgAc_pziCA-144" edge="1"><mxGeometry relative="1" as="geometry"/></mxCell><mxCell id="7xXleIvDm7jgAc_pziCA-149" value="Payment will be only through Neon Pay" style="rounded=0;whiteSpace=wrap;html=1;fillColor=#dae8fc;strokeColor=#6c8ebf;fontColor=#000000;" parent="1" vertex="1"><mxGeometry x="570" y="2430" width="120" height="80" as="geometry"/></mxCell><mxCell id="7xXleIvDm7jgAc_pziCA-158" value="" style="edgeStyle=orthogonalEdgeStyle;rounded=0;orthogonalLoop=1;jettySize=auto;html=1;" parent="1" source="7xXleIvDm7jgAc_pziCA-150" target="7xXleIvDm7jgAc_pziCA-149" edge="1"><mxGeometry relative="1" as="geometry"/></mxCell><mxCell id="7xXleIvDm7jgAc_pziCA-150" value="When you donations, you must create an account" style="rounded=0;whiteSpace=wrap;html=1;fillColor=#dae8fc;strokeColor=#6c8ebf;fontColor=#000000;" parent="1" vertex="1"><mxGeometry x="410" y="2430" width="120" height="80" as="geometry"/></mxCell><mxCell id="7xXleIvDm7jgAc_pziCA-152" style="edgeStyle=orthogonalEdgeStyle;rounded=0;orthogonalLoop=1;jettySize=auto;html=1;exitX=0.5;exitY=1;exitDx=0;exitDy=0;entryX=1;entryY=0.5;entryDx=0;entryDy=0;" parent="1" source="7xXleIvDm7jgAc_pziCA-151" target="7xXleIvDm7jgAc_pziCA-109" edge="1"><mxGeometry relative="1" as="geometry"><Array as="points"><mxPoint x="950" y="2590"/><mxPoint x="680" y="2590"/><mxPoint x="680" y="2550"/></Array></mxGeometry></mxCell><mxCell id="7xXleIvDm7jgAc_pziCA-151" value="You will need to send a email,&amp;nbsp;you need a text." style="rounded=0;whiteSpace=wrap;html=1;fillColor=#f8cecc;strokeColor=#b85450;sketch=0;fontColor=#000000;" parent="1" vertex="1"><mxGeometry x="890" y="2490" width="120" height="80" as="geometry"/></mxCell><mxCell id="7xXleIvDm7jgAc_pziCA-155" style="edgeStyle=orthogonalEdgeStyle;rounded=0;orthogonalLoop=1;jettySize=auto;html=1;exitX=1;exitY=0.5;exitDx=0;exitDy=0;entryX=1;entryY=0.5;entryDx=0;entryDy=0;" parent="1" source="7xXleIvDm7jgAc_pziCA-153" target="7xXleIvDm7jgAc_pziCA-122" edge="1"><mxGeometry relative="1" as="geometry"/></mxCell><mxCell id="7xXleIvDm7jgAc_pziCA-153" value="You will need to send a email&amp;nbsp;you need a text." style="rounded=0;whiteSpace=wrap;html=1;fillColor=#f8cecc;strokeColor=#b85450;sketch=0;fontColor=#000000;" parent="1" vertex="1"><mxGeometry x="1050" y="2370" width="120" height="80" as="geometry"/></mxCell><mxCell id="7xXleIvDm7jgAc_pziCA-181" value="" style="edgeStyle=orthogonalEdgeStyle;rounded=0;orthogonalLoop=1;jettySize=auto;html=1;fontColor=#000000;" parent="1" source="7xXleIvDm7jgAc_pziCA-162" target="7xXleIvDm7jgAc_pziCA-180" edge="1"><mxGeometry relative="1" as="geometry"/></mxCell><mxCell id="7xXleIvDm7jgAc_pziCA-162" value="Info Subscriptions" style="rounded=0;whiteSpace=wrap;html=1;fillColor=#e1d5e7;strokeColor=#9673a6;fontColor=#000000;" parent="1" vertex="1"><mxGeometry x="80" y="3160" width="160" height="80" as="geometry"/></mxCell><mxCell id="7xXleIvDm7jgAc_pziCA-240" style="edgeStyle=orthogonalEdgeStyle;rounded=0;orthogonalLoop=1;jettySize=auto;html=1;exitX=0.5;exitY=1;exitDx=0;exitDy=0;entryX=0;entryY=0.5;entryDx=0;entryDy=0;fontColor=#000000;" parent="1" source="7xXleIvDm7jgAc_pziCA-163" target="7xXleIvDm7jgAc_pziCA-200" edge="1"><mxGeometry relative="1" as="geometry"/></mxCell><mxCell id="7xXleIvDm7jgAc_pziCA-241" style="edgeStyle=orthogonalEdgeStyle;rounded=0;orthogonalLoop=1;jettySize=auto;html=1;exitX=0.5;exitY=1;exitDx=0;exitDy=0;entryX=0;entryY=0.5;entryDx=0;entryDy=0;fontColor=#000000;" parent="1" source="7xXleIvDm7jgAc_pziCA-163" target="7xXleIvDm7jgAc_pziCA-237" edge="1"><mxGeometry relative="1" as="geometry"/></mxCell><mxCell id="7xXleIvDm7jgAc_pziCA-242" style="edgeStyle=orthogonalEdgeStyle;rounded=0;orthogonalLoop=1;jettySize=auto;html=1;exitX=0.5;exitY=1;exitDx=0;exitDy=0;entryX=0;entryY=0.5;entryDx=0;entryDy=0;fontColor=#000000;" parent="1" source="7xXleIvDm7jgAc_pziCA-163" target="7xXleIvDm7jgAc_pziCA-223" edge="1"><mxGeometry relative="1" as="geometry"/></mxCell><mxCell id="V-SNPXjp-S1AOhE5Q4zP-3" style="edgeStyle=orthogonalEdgeStyle;rounded=0;orthogonalLoop=1;jettySize=auto;html=1;exitX=0.5;exitY=1;exitDx=0;exitDy=0;entryX=0;entryY=0.75;entryDx=0;entryDy=0;fontColor=#000000;" parent="1" source="7xXleIvDm7jgAc_pziCA-163" target="V-SNPXjp-S1AOhE5Q4zP-1" edge="1"><mxGeometry relative="1" as="geometry"/></mxCell><mxCell id="V-SNPXjp-S1AOhE5Q4zP-4" style="edgeStyle=orthogonalEdgeStyle;rounded=0;orthogonalLoop=1;jettySize=auto;html=1;exitX=0.5;exitY=1;exitDx=0;exitDy=0;entryX=0;entryY=0.5;entryDx=0;entryDy=0;fontColor=#000000;" parent="1" source="7xXleIvDm7jgAc_pziCA-163" target="V-SNPXjp-S1AOhE5Q4zP-2" edge="1"><mxGeometry relative="1" as="geometry"/></mxCell><mxCell id="WkCh3vwjCoDEeLmgxas2-11" style="edgeStyle=orthogonalEdgeStyle;rounded=0;orthogonalLoop=1;jettySize=auto;html=1;exitX=0.5;exitY=1;exitDx=0;exitDy=0;entryX=0;entryY=0.5;entryDx=0;entryDy=0;strokeColor=#000000;fontColor=#000000;" parent="1" source="7xXleIvDm7jgAc_pziCA-163" target="WkCh3vwjCoDEeLmgxas2-10" edge="1"><mxGeometry relative="1" as="geometry"/></mxCell><mxCell id="7xXleIvDm7jgAc_pziCA-163" value="User Fields" style="rounded=0;whiteSpace=wrap;html=1;fillColor=#dae8fc;strokeColor=#6c8ebf;fontColor=#000000;" parent="1" vertex="1"><mxGeometry x="80" y="3280" width="160" height="80" as="geometry"/></mxCell><mxCell id="7xXleIvDm7jgAc_pziCA-268" style="edgeStyle=orthogonalEdgeStyle;rounded=0;orthogonalLoop=1;jettySize=auto;html=1;exitX=0.5;exitY=1;exitDx=0;exitDy=0;entryX=0;entryY=0.5;entryDx=0;entryDy=0;sketch=0;fontColor=#000000;" parent="1" source="7xXleIvDm7jgAc_pziCA-164" target="7xXleIvDm7jgAc_pziCA-216" edge="1"><mxGeometry relative="1" as="geometry"/></mxCell><mxCell id="7xXleIvDm7jgAc_pziCA-269" style="edgeStyle=orthogonalEdgeStyle;rounded=0;orthogonalLoop=1;jettySize=auto;html=1;exitX=0.5;exitY=1;exitDx=0;exitDy=0;entryX=0;entryY=0.5;entryDx=0;entryDy=0;sketch=0;fontColor=#000000;" parent="1" source="7xXleIvDm7jgAc_pziCA-164" target="7xXleIvDm7jgAc_pziCA-218" edge="1"><mxGeometry relative="1" as="geometry"/></mxCell><mxCell id="7xXleIvDm7jgAc_pziCA-270" style="edgeStyle=orthogonalEdgeStyle;rounded=0;orthogonalLoop=1;jettySize=auto;html=1;entryX=0;entryY=0.5;entryDx=0;entryDy=0;sketch=0;fontColor=#000000;" parent="1" source="7xXleIvDm7jgAc_pziCA-164" target="7xXleIvDm7jgAc_pziCA-217" edge="1"><mxGeometry relative="1" as="geometry"/></mxCell><mxCell id="7xXleIvDm7jgAc_pziCA-271" style="edgeStyle=orthogonalEdgeStyle;rounded=0;orthogonalLoop=1;jettySize=auto;html=1;exitX=0.5;exitY=1;exitDx=0;exitDy=0;entryX=0;entryY=0.5;entryDx=0;entryDy=0;sketch=0;fontColor=#000000;" parent="1" source="7xXleIvDm7jgAc_pziCA-164" target="7xXleIvDm7jgAc_pziCA-219" edge="1"><mxGeometry relative="1" as="geometry"/></mxCell><mxCell id="7xXleIvDm7jgAc_pziCA-272" style="edgeStyle=orthogonalEdgeStyle;rounded=0;orthogonalLoop=1;jettySize=auto;html=1;exitX=0.5;exitY=1;exitDx=0;exitDy=0;entryX=0;entryY=0.5;entryDx=0;entryDy=0;sketch=0;fontColor=#000000;" parent="1" source="7xXleIvDm7jgAc_pziCA-164" target="7xXleIvDm7jgAc_pziCA-221" edge="1"><mxGeometry relative="1" as="geometry"/></mxCell><mxCell id="L4_pr1pYZJ6r3tZRuc8D-1" style="edgeStyle=orthogonalEdgeStyle;rounded=0;orthogonalLoop=1;jettySize=auto;html=1;exitX=0.5;exitY=1;exitDx=0;exitDy=0;entryX=0;entryY=0.5;entryDx=0;entryDy=0;sketch=0;fontColor=#000000;" parent="1" source="7xXleIvDm7jgAc_pziCA-164" target="UJV2R2LUBAMsPxbDvIgO-4" edge="1"><mxGeometry relative="1" as="geometry"/></mxCell><mxCell id="L4_pr1pYZJ6r3tZRuc8D-2" style="edgeStyle=orthogonalEdgeStyle;rounded=0;orthogonalLoop=1;jettySize=auto;html=1;exitX=0.5;exitY=1;exitDx=0;exitDy=0;entryX=0;entryY=0.5;entryDx=0;entryDy=0;sketch=0;fontColor=#000000;" parent="1" source="7xXleIvDm7jgAc_pziCA-164" target="UJV2R2LUBAMsPxbDvIgO-5" edge="1"><mxGeometry relative="1" as="geometry"/></mxCell><mxCell id="7xXleIvDm7jgAc_pziCA-164" value="All emails must be sent through neon&amp;nbsp;" style="rounded=0;whiteSpace=wrap;html=1;fillColor=#dae8fc;strokeColor=#6c8ebf;sketch=0;fontColor=#000000;" parent="1" vertex="1"><mxGeometry x="80" y="5000" width="160" height="80" as="geometry"/></mxCell><mxCell id="7xXleIvDm7jgAc_pziCA-175" value="" style="edgeStyle=orthogonalEdgeStyle;rounded=0;orthogonalLoop=1;jettySize=auto;html=1;" parent="1" source="7xXleIvDm7jgAc_pziCA-171" target="7xXleIvDm7jgAc_pziCA-172" edge="1"><mxGeometry relative="1" as="geometry"/></mxCell><mxCell id="7xXleIvDm7jgAc_pziCA-171" value="When buying, you must create an account" style="rounded=0;whiteSpace=wrap;html=1;fillColor=#dae8fc;strokeColor=#6c8ebf;fontColor=#000000;" parent="1" vertex="1"><mxGeometry x="770" y="1550" width="120" height="80" as="geometry"/></mxCell><mxCell id="7xXleIvDm7jgAc_pziCA-191" value="" style="edgeStyle=orthogonalEdgeStyle;rounded=0;orthogonalLoop=1;jettySize=auto;html=1;" parent="1" source="7xXleIvDm7jgAc_pziCA-172" target="7xXleIvDm7jgAc_pziCA-190" edge="1"><mxGeometry relative="1" as="geometry"/></mxCell><mxCell id="7xXleIvDm7jgAc_pziCA-172" value="Payment will be only through Neon Pay" style="rounded=0;whiteSpace=wrap;html=1;fillColor=#dae8fc;strokeColor=#6c8ebf;fontColor=#000000;" parent="1" vertex="1"><mxGeometry x="930" y="1550" width="120" height="80" as="geometry"/></mxCell><mxCell id="V-SNPXjp-S1AOhE5Q4zP-10" style="edgeStyle=orthogonalEdgeStyle;rounded=0;orthogonalLoop=1;jettySize=auto;html=1;exitX=0.5;exitY=1;exitDx=0;exitDy=0;entryX=1;entryY=0.5;entryDx=0;entryDy=0;" parent="1" source="7xXleIvDm7jgAc_pziCA-173" target="7xXleIvDm7jgAc_pziCA-91" edge="1"><mxGeometry relative="1" as="geometry"/></mxCell><mxCell id="7xXleIvDm7jgAc_pziCA-173" value="You will need to send a email, you need a text." style="rounded=0;whiteSpace=wrap;html=1;fillColor=#f8cecc;strokeColor=#b85450;sketch=0;fontColor=#000000;" parent="1" vertex="1"><mxGeometry x="1730" y="1550" width="120" height="80" as="geometry"/></mxCell><mxCell id="7xXleIvDm7jgAc_pziCA-179" value="&lt;div&gt;The page will&lt;/div&gt;&lt;div&gt;&lt;ul&gt;&lt;li style=&quot;text-align: left;&quot;&gt;products list&lt;/li&gt;&lt;li style=&quot;text-align: left;&quot;&gt;filter by category&lt;/li&gt;&lt;/ul&gt;&lt;/div&gt;" style="rounded=0;whiteSpace=wrap;html=1;fillColor=#fff2cc;strokeColor=#d6b656;align=center;fontColor=#000000;" parent="1" vertex="1"><mxGeometry x="440" y="1300" width="120" height="100" as="geometry"/></mxCell><mxCell id="c5qxtLoEuRJrSgBG_Tk3-11" value="" style="edgeStyle=orthogonalEdgeStyle;rounded=0;orthogonalLoop=1;jettySize=auto;html=1;fontColor=#000000;" parent="1" source="7xXleIvDm7jgAc_pziCA-180" target="L4_pr1pYZJ6r3tZRuc8D-53" edge="1"><mxGeometry relative="1" as="geometry"/></mxCell><mxCell id="7xXleIvDm7jgAc_pziCA-180" value="Blog and newsletter" style="rounded=0;whiteSpace=wrap;html=1;fillColor=#dae8fc;strokeColor=#6c8ebf;fontColor=#000000;" parent="1" vertex="1"><mxGeometry x="280" y="3160" width="120" height="80" as="geometry"/></mxCell><mxCell id="7xXleIvDm7jgAc_pziCA-210" value="" style="edgeStyle=orthogonalEdgeStyle;rounded=0;orthogonalLoop=1;jettySize=auto;html=1;" parent="1" source="7xXleIvDm7jgAc_pziCA-183" target="7xXleIvDm7jgAc_pziCA-153" edge="1"><mxGeometry relative="1" as="geometry"/></mxCell><mxCell id="7xXleIvDm7jgAc_pziCA-183" value="Recurring donations, first payment the next day." style="rounded=0;whiteSpace=wrap;html=1;fillColor=#dae8fc;strokeColor=#6c8ebf;fontColor=#000000;" parent="1" vertex="1"><mxGeometry x="890" y="2370" width="120" height="80" as="geometry"/></mxCell><mxCell id="c5qxtLoEuRJrSgBG_Tk3-3" value="" style="edgeStyle=orthogonalEdgeStyle;rounded=0;orthogonalLoop=1;jettySize=auto;html=1;" parent="1" source="7xXleIvDm7jgAc_pziCA-184" target="c5qxtLoEuRJrSgBG_Tk3-1" edge="1"><mxGeometry relative="1" as="geometry"/></mxCell><mxCell id="7xXleIvDm7jgAc_pziCA-184" value="Мы будем использовать вход через неон" style="rounded=0;whiteSpace=wrap;html=1;fillColor=#dae8fc;strokeColor=#6c8ebf;sketch=0;fontColor=#000000;" parent="1" vertex="1"><mxGeometry x="560" y="1710" width="120" height="80" as="geometry"/></mxCell><mxCell id="7xXleIvDm7jgAc_pziCA-264" value="" style="edgeStyle=orthogonalEdgeStyle;rounded=0;orthogonalLoop=1;jettySize=auto;html=1;" parent="1" edge="1"><mxGeometry relative="1" as="geometry"><mxPoint x="1050" y="1770" as="targetPoint"/></mxGeometry></mxCell><mxCell id="7xXleIvDm7jgAc_pziCA-265" value="" style="edgeStyle=orthogonalEdgeStyle;rounded=0;orthogonalLoop=1;jettySize=auto;html=1;" parent="1" edge="1"><mxGeometry relative="1" as="geometry"><mxPoint x="950" y="1810" as="sourcePoint"/></mxGeometry></mxCell><mxCell id="7xXleIvDm7jgAc_pziCA-267" value="" style="edgeStyle=orthogonalEdgeStyle;rounded=0;orthogonalLoop=1;jettySize=auto;html=1;" parent="1" source="7xXleIvDm7jgAc_pziCA-189" target="7xXleIvDm7jgAc_pziCA-196" edge="1"><mxGeometry relative="1" as="geometry"/></mxCell><mxCell id="7xXleIvDm7jgAc_pziCA-189" value="We store only one main address, later it will be substituted for both the billing address and the delivery address" style="rounded=0;whiteSpace=wrap;html=1;fillColor=#dae8fc;strokeColor=#6c8ebf;sketch=0;fontColor=#000000;" parent="1" vertex="1"><mxGeometry x="530" y="2140" width="120" height="80" as="geometry"/></mxCell><mxCell id="7xXleIvDm7jgAc_pziCA-194" value="" style="edgeStyle=orthogonalEdgeStyle;rounded=0;orthogonalLoop=1;jettySize=auto;html=1;" parent="1" source="7xXleIvDm7jgAc_pziCA-190" target="7xXleIvDm7jgAc_pziCA-193" edge="1"><mxGeometry relative="1" as="geometry"/></mxCell><mxCell id="7xXleIvDm7jgAc_pziCA-190" value="For billing addresses, the primary address from Neon will be set by default, in neon there are no fields for storing the billing address." style="rounded=0;whiteSpace=wrap;html=1;fillColor=#dae8fc;strokeColor=#6c8ebf;sketch=0;fontColor=#000000;" parent="1" vertex="1"><mxGeometry x="1090" y="1520" width="120" height="140" as="geometry"/></mxCell><mxCell id="V-SNPXjp-S1AOhE5Q4zP-24" value="" style="edgeStyle=orthogonalEdgeStyle;rounded=0;orthogonalLoop=1;jettySize=auto;html=1;" parent="1" source="7xXleIvDm7jgAc_pziCA-193" target="V-SNPXjp-S1AOhE5Q4zP-23" edge="1"><mxGeometry relative="1" as="geometry"/></mxCell><mxCell id="7xXleIvDm7jgAc_pziCA-193" value="There will be a fixed set of fields" style="rounded=0;whiteSpace=wrap;html=1;fillColor=#dae8fc;strokeColor=#6c8ebf;sketch=0;fontColor=#000000;" parent="1" vertex="1"><mxGeometry x="1250" y="1550" width="120" height="80" as="geometry"/></mxCell><mxCell id="7xXleIvDm7jgAc_pziCA-196" value="There will be a fixed set of fields" style="rounded=0;whiteSpace=wrap;html=1;fillColor=#dae8fc;strokeColor=#6c8ebf;sketch=0;fontColor=#000000;" parent="1" vertex="1"><mxGeometry x="690" y="2140" width="120" height="80" as="geometry"/></mxCell><mxCell id="7xXleIvDm7jgAc_pziCA-260" value="" style="edgeStyle=orthogonalEdgeStyle;rounded=0;orthogonalLoop=1;jettySize=auto;html=1;" parent="1" source="7xXleIvDm7jgAc_pziCA-197" target="7xXleIvDm7jgAc_pziCA-222" edge="1"><mxGeometry relative="1" as="geometry"/></mxCell><mxCell id="7xXleIvDm7jgAc_pziCA-197" value="There will be a fixed set of fields" style="rounded=0;whiteSpace=wrap;html=1;fillColor=#dae8fc;strokeColor=#6c8ebf;sketch=0;fontColor=#000000;" parent="1" vertex="1"><mxGeometry x="570" y="1920" width="120" height="80" as="geometry"/></mxCell><mxCell id="7xXleIvDm7jgAc_pziCA-198" value="First Name" style="rounded=1;whiteSpace=wrap;html=1;sketch=0;fillColor=#dae8fc;strokeColor=#6c8ebf;fontColor=#000000;" parent="1" vertex="1"><mxGeometry x="320" y="3520" width="160" height="40" as="geometry"/></mxCell><mxCell id="7xXleIvDm7jgAc_pziCA-199" value="Last Name" style="rounded=1;whiteSpace=wrap;html=1;sketch=0;fillColor=#dae8fc;strokeColor=#6c8ebf;fontColor=#000000;" parent="1" vertex="1"><mxGeometry x="320" y="3570" width="160" height="40" as="geometry"/></mxCell><mxCell id="7xXleIvDm7jgAc_pziCA-200" value="User Login" style="rounded=1;whiteSpace=wrap;html=1;sketch=0;fillColor=#dae8fc;strokeColor=#6c8ebf;fontColor=#000000;" parent="1" vertex="1"><mxGeometry x="200" y="3420" width="160" height="40" as="geometry"/></mxCell><mxCell id="7xXleIvDm7jgAc_pziCA-211" style="edgeStyle=orthogonalEdgeStyle;rounded=0;orthogonalLoop=1;jettySize=auto;html=1;exitX=0.5;exitY=1;exitDx=0;exitDy=0;entryX=0;entryY=0.5;entryDx=0;entryDy=0;sketch=0;fontColor=#000000;" parent="1" source="7xXleIvDm7jgAc_pziCA-201" target="7xXleIvDm7jgAc_pziCA-202" edge="1"><mxGeometry relative="1" as="geometry"/></mxCell><mxCell id="7xXleIvDm7jgAc_pziCA-212" style="edgeStyle=orthogonalEdgeStyle;rounded=0;orthogonalLoop=1;jettySize=auto;html=1;exitX=0.5;exitY=1;exitDx=0;exitDy=0;entryX=0;entryY=0.5;entryDx=0;entryDy=0;sketch=0;fontColor=#000000;" parent="1" source="7xXleIvDm7jgAc_pziCA-201" target="7xXleIvDm7jgAc_pziCA-203" edge="1"><mxGeometry relative="1" as="geometry"/></mxCell><mxCell id="7xXleIvDm7jgAc_pziCA-213" style="edgeStyle=orthogonalEdgeStyle;rounded=0;orthogonalLoop=1;jettySize=auto;html=1;exitX=0.5;exitY=1;exitDx=0;exitDy=0;entryX=0;entryY=0.5;entryDx=0;entryDy=0;sketch=0;fontColor=#000000;" parent="1" source="7xXleIvDm7jgAc_pziCA-201" target="7xXleIvDm7jgAc_pziCA-205" edge="1"><mxGeometry relative="1" as="geometry"/></mxCell><mxCell id="7xXleIvDm7jgAc_pziCA-214" style="edgeStyle=orthogonalEdgeStyle;rounded=0;orthogonalLoop=1;jettySize=auto;html=1;exitX=0.5;exitY=1;exitDx=0;exitDy=0;entryX=0;entryY=0.25;entryDx=0;entryDy=0;sketch=0;fontColor=#000000;" parent="1" source="7xXleIvDm7jgAc_pziCA-201" target="7xXleIvDm7jgAc_pziCA-204" edge="1"><mxGeometry relative="1" as="geometry"/></mxCell><mxCell id="7xXleIvDm7jgAc_pziCA-215" style="edgeStyle=orthogonalEdgeStyle;rounded=0;orthogonalLoop=1;jettySize=auto;html=1;exitX=0.5;exitY=1;exitDx=0;exitDy=0;entryX=0;entryY=0.25;entryDx=0;entryDy=0;sketch=0;fontColor=#000000;" parent="1" source="7xXleIvDm7jgAc_pziCA-201" target="7xXleIvDm7jgAc_pziCA-207" edge="1"><mxGeometry relative="1" as="geometry"/></mxCell><mxCell id="7xXleIvDm7jgAc_pziCA-201" value="API Data" style="rounded=0;whiteSpace=wrap;html=1;fillColor=#dae8fc;strokeColor=#6c8ebf;sketch=0;fontColor=#000000;" parent="1" vertex="1"><mxGeometry x="80" y="5480" width="160" height="80" as="geometry"/></mxCell><mxCell id="L4_pr1pYZJ6r3tZRuc8D-71" value="" style="edgeStyle=orthogonalEdgeStyle;rounded=0;sketch=0;orthogonalLoop=1;jettySize=auto;html=1;" parent="1" source="7xXleIvDm7jgAc_pziCA-202" target="L4_pr1pYZJ6r3tZRuc8D-67" edge="1"><mxGeometry relative="1" as="geometry"/></mxCell><mxCell id="7xXleIvDm7jgAc_pziCA-202" value="Neon Live" style="rounded=1;whiteSpace=wrap;html=1;sketch=0;fillColor=#f8cecc;strokeColor=#b85450;fontColor=#000000;" parent="1" vertex="1"><mxGeometry x="200" y="5600" width="160" height="40" as="geometry"/></mxCell><mxCell id="L4_pr1pYZJ6r3tZRuc8D-70" value="" style="edgeStyle=orthogonalEdgeStyle;rounded=0;sketch=0;orthogonalLoop=1;jettySize=auto;html=1;" parent="1" source="7xXleIvDm7jgAc_pziCA-203" target="L4_pr1pYZJ6r3tZRuc8D-67" edge="1"><mxGeometry relative="1" as="geometry"/></mxCell><mxCell id="7xXleIvDm7jgAc_pziCA-203" value="Neon Sandbox" style="rounded=1;whiteSpace=wrap;html=1;sketch=0;fillColor=#f8cecc;strokeColor=#b85450;fontColor=#000000;" parent="1" vertex="1"><mxGeometry x="200" y="5650" width="160" height="40" as="geometry"/></mxCell><mxCell id="L4_pr1pYZJ6r3tZRuc8D-77" style="edgeStyle=orthogonalEdgeStyle;rounded=0;sketch=0;orthogonalLoop=1;jettySize=auto;html=1;exitX=1;exitY=0.5;exitDx=0;exitDy=0;entryX=0;entryY=0.5;entryDx=0;entryDy=0;" parent="1" source="7xXleIvDm7jgAc_pziCA-204" target="L4_pr1pYZJ6r3tZRuc8D-66" edge="1"><mxGeometry relative="1" as="geometry"/></mxCell><mxCell id="7xXleIvDm7jgAc_pziCA-204" value="Neon Pay Sandbox" style="rounded=1;whiteSpace=wrap;html=1;sketch=0;fillColor=#f8cecc;strokeColor=#b85450;fontColor=#000000;" parent="1" vertex="1"><mxGeometry x="200" y="5750" width="160" height="40" as="geometry"/></mxCell><mxCell id="L4_pr1pYZJ6r3tZRuc8D-75" style="edgeStyle=orthogonalEdgeStyle;rounded=0;sketch=0;orthogonalLoop=1;jettySize=auto;html=1;exitX=1;exitY=0.5;exitDx=0;exitDy=0;entryX=0;entryY=0.5;entryDx=0;entryDy=0;" parent="1" source="7xXleIvDm7jgAc_pziCA-205" target="L4_pr1pYZJ6r3tZRuc8D-66" edge="1"><mxGeometry relative="1" as="geometry"/></mxCell><mxCell id="7xXleIvDm7jgAc_pziCA-205" value="Neon Pay Live" style="rounded=1;whiteSpace=wrap;html=1;sketch=0;fillColor=#f8cecc;strokeColor=#b85450;fontColor=#000000;" parent="1" vertex="1"><mxGeometry x="200" y="5700" width="160" height="40" as="geometry"/></mxCell><mxCell id="L4_pr1pYZJ6r3tZRuc8D-79" value="" style="edgeStyle=orthogonalEdgeStyle;rounded=0;sketch=0;orthogonalLoop=1;jettySize=auto;html=1;" parent="1" source="7xXleIvDm7jgAc_pziCA-207" target="L4_pr1pYZJ6r3tZRuc8D-78" edge="1"><mxGeometry relative="1" as="geometry"/></mxCell><mxCell id="7xXleIvDm7jgAc_pziCA-207" value="Livestream Live" style="rounded=1;whiteSpace=wrap;html=1;sketch=0;fillColor=#f8cecc;strokeColor=#b85450;fontColor=#000000;" parent="1" vertex="1"><mxGeometry x="200" y="5800" width="160" height="40" as="geometry"/></mxCell><mxCell id="7xXleIvDm7jgAc_pziCA-216" value="Event Registration" style="rounded=1;whiteSpace=wrap;html=1;sketch=0;fillColor=#f8cecc;strokeColor=#b85450;fontColor=#000000;" parent="1" vertex="1"><mxGeometry x="200" y="5120" width="160" height="40" as="geometry"/></mxCell><mxCell id="7xXleIvDm7jgAc_pziCA-217" value="Create Order" style="rounded=1;whiteSpace=wrap;html=1;sketch=0;fillColor=#f8cecc;strokeColor=#b85450;fontColor=#000000;" parent="1" vertex="1"><mxGeometry x="200" y="5220" width="160" height="40" as="geometry"/></mxCell><mxCell id="7xXleIvDm7jgAc_pziCA-218" value="User Registration" style="rounded=1;whiteSpace=wrap;html=1;sketch=0;fillColor=#f8cecc;strokeColor=#b85450;fontColor=#000000;" parent="1" vertex="1"><mxGeometry x="200" y="5170" width="160" height="40" as="geometry"/></mxCell><mxCell id="7xXleIvDm7jgAc_pziCA-219" value="Create Donation" style="rounded=1;whiteSpace=wrap;html=1;sketch=0;fillColor=#f8cecc;strokeColor=#b85450;fontColor=#000000;" parent="1" vertex="1"><mxGeometry x="200" y="5270" width="160" height="40" as="geometry"/></mxCell><mxCell id="7xXleIvDm7jgAc_pziCA-221" value="Create Recurring Donation" style="rounded=1;whiteSpace=wrap;html=1;sketch=0;fillColor=#f8cecc;strokeColor=#b85450;fontColor=#000000;" parent="1" vertex="1"><mxGeometry x="200" y="5320" width="160" height="40" as="geometry"/></mxCell><mxCell id="7xXleIvDm7jgAc_pziCA-222" value="You will need to send a email&amp;nbsp;you need a text." style="rounded=0;whiteSpace=wrap;html=1;fillColor=#f8cecc;strokeColor=#b85450;sketch=0;fontColor=#000000;" parent="1" vertex="1"><mxGeometry x="730" y="1920" width="120" height="80" as="geometry"/></mxCell><mxCell id="7xXleIvDm7jgAc_pziCA-245" style="edgeStyle=orthogonalEdgeStyle;rounded=0;orthogonalLoop=1;jettySize=auto;html=1;exitX=0.5;exitY=1;exitDx=0;exitDy=0;entryX=0;entryY=0.5;entryDx=0;entryDy=0;fillColor=#f8cecc;strokeColor=#000000;fontColor=#000000;" parent="1" source="7xXleIvDm7jgAc_pziCA-223" target="7xXleIvDm7jgAc_pziCA-231" edge="1"><mxGeometry relative="1" as="geometry"/></mxCell><mxCell id="7xXleIvDm7jgAc_pziCA-246" style="edgeStyle=orthogonalEdgeStyle;rounded=0;orthogonalLoop=1;jettySize=auto;html=1;exitX=0.5;exitY=1;exitDx=0;exitDy=0;entryX=0;entryY=0.5;entryDx=0;entryDy=0;fillColor=#f8cecc;strokeColor=#000000;fontColor=#000000;" parent="1" source="7xXleIvDm7jgAc_pziCA-223" target="7xXleIvDm7jgAc_pziCA-232" edge="1"><mxGeometry relative="1" as="geometry"/></mxCell><mxCell id="7xXleIvDm7jgAc_pziCA-247" style="edgeStyle=orthogonalEdgeStyle;rounded=0;orthogonalLoop=1;jettySize=auto;html=1;exitX=0.5;exitY=1;exitDx=0;exitDy=0;entryX=0;entryY=0.5;entryDx=0;entryDy=0;fillColor=#f8cecc;strokeColor=#000000;fontColor=#000000;" parent="1" source="7xXleIvDm7jgAc_pziCA-223" target="7xXleIvDm7jgAc_pziCA-233" edge="1"><mxGeometry relative="1" as="geometry"/></mxCell><mxCell id="7xXleIvDm7jgAc_pziCA-248" style="edgeStyle=orthogonalEdgeStyle;rounded=0;orthogonalLoop=1;jettySize=auto;html=1;exitX=0.5;exitY=1;exitDx=0;exitDy=0;entryX=0;entryY=0.5;entryDx=0;entryDy=0;fillColor=#f8cecc;strokeColor=#000000;fontColor=#000000;" parent="1" source="7xXleIvDm7jgAc_pziCA-223" target="7xXleIvDm7jgAc_pziCA-234" edge="1"><mxGeometry relative="1" as="geometry"/></mxCell><mxCell id="7xXleIvDm7jgAc_pziCA-249" style="edgeStyle=orthogonalEdgeStyle;rounded=0;orthogonalLoop=1;jettySize=auto;html=1;exitX=0.5;exitY=1;exitDx=0;exitDy=0;entryX=0;entryY=0.5;entryDx=0;entryDy=0;fillColor=#f8cecc;strokeColor=#000000;fontColor=#000000;" parent="1" source="7xXleIvDm7jgAc_pziCA-223" target="7xXleIvDm7jgAc_pziCA-235" edge="1"><mxGeometry relative="1" as="geometry"/></mxCell><mxCell id="7xXleIvDm7jgAc_pziCA-250" style="edgeStyle=orthogonalEdgeStyle;rounded=0;orthogonalLoop=1;jettySize=auto;html=1;exitX=0.5;exitY=1;exitDx=0;exitDy=0;entryX=0;entryY=0.5;entryDx=0;entryDy=0;fillColor=#f8cecc;strokeColor=#000000;fontColor=#000000;" parent="1" source="7xXleIvDm7jgAc_pziCA-223" target="7xXleIvDm7jgAc_pziCA-236" edge="1"><mxGeometry relative="1" as="geometry"/></mxCell><mxCell id="7xXleIvDm7jgAc_pziCA-223" value="Address" style="rounded=1;whiteSpace=wrap;html=1;sketch=0;fillColor=#dae8fc;strokeColor=#6c8ebf;fontColor=#000000;" parent="1" vertex="1"><mxGeometry x="200" y="3770" width="160" height="40" as="geometry"/></mxCell><mxCell id="7xXleIvDm7jgAc_pziCA-231" value="Address Line 1" style="rounded=1;whiteSpace=wrap;html=1;sketch=0;fillColor=#dae8fc;strokeColor=#6c8ebf;fontColor=#000000;" parent="1" vertex="1"><mxGeometry x="320" y="3820" width="160" height="40" as="geometry"/></mxCell><mxCell id="7xXleIvDm7jgAc_pziCA-232" value="Address Line 2&amp;nbsp;(Optional)" style="rounded=1;whiteSpace=wrap;html=1;sketch=0;fillColor=#dae8fc;strokeColor=#6c8ebf;fontColor=#000000;" parent="1" vertex="1"><mxGeometry x="320" y="3870" width="160" height="40" as="geometry"/></mxCell><mxCell id="7xXleIvDm7jgAc_pziCA-233" value="City" style="rounded=1;whiteSpace=wrap;html=1;sketch=0;fillColor=#dae8fc;strokeColor=#6c8ebf;fontColor=#000000;" parent="1" vertex="1"><mxGeometry x="320" y="3920" width="160" height="40" as="geometry"/></mxCell><mxCell id="7xXleIvDm7jgAc_pziCA-234" value="State/Province" style="rounded=1;whiteSpace=wrap;html=1;sketch=0;fillColor=#dae8fc;strokeColor=#6c8ebf;fontColor=#000000;" parent="1" vertex="1"><mxGeometry x="320" y="3970" width="160" height="40" as="geometry"/></mxCell><mxCell id="7xXleIvDm7jgAc_pziCA-235" value="Zip Code" style="rounded=1;whiteSpace=wrap;html=1;sketch=0;fillColor=#dae8fc;strokeColor=#6c8ebf;fontColor=#000000;" parent="1" vertex="1"><mxGeometry x="320" y="4020" width="160" height="40" as="geometry"/></mxCell><mxCell id="7xXleIvDm7jgAc_pziCA-236" value="Phone Number" style="rounded=1;whiteSpace=wrap;html=1;sketch=0;fillColor=#dae8fc;strokeColor=#6c8ebf;fontColor=#000000;" parent="1" vertex="1"><mxGeometry x="320" y="4070" width="160" height="40" as="geometry"/></mxCell><mxCell id="7xXleIvDm7jgAc_pziCA-237" value="Email" style="rounded=1;whiteSpace=wrap;html=1;sketch=0;fillColor=#dae8fc;strokeColor=#6c8ebf;fontColor=#000000;" parent="1" vertex="1"><mxGeometry x="200" y="3370" width="160" height="40" as="geometry"/></mxCell><mxCell id="V-SNPXjp-S1AOhE5Q4zP-6" value="" style="edgeStyle=orthogonalEdgeStyle;rounded=0;orthogonalLoop=1;jettySize=auto;html=1;" parent="1" edge="1"><mxGeometry relative="1" as="geometry"><mxPoint x="1050" y="1900" as="targetPoint"/></mxGeometry></mxCell><mxCell id="7xXleIvDm7jgAc_pziCA-258" value="" style="edgeStyle=orthogonalEdgeStyle;rounded=0;orthogonalLoop=1;jettySize=auto;html=1;" parent="1" source="7xXleIvDm7jgAc_pziCA-252" target="7xXleIvDm7jgAc_pziCA-253" edge="1"><mxGeometry relative="1" as="geometry"/></mxCell><mxCell id="7xXleIvDm7jgAc_pziCA-252" value="It will be possible to change the cost, period, payment method." style="rounded=0;whiteSpace=wrap;html=1;fillColor=#dae8fc;strokeColor=#6c8ebf;sketch=0;fontColor=#000000;" parent="1" vertex="1"><mxGeometry x="810" y="2040" width="120" height="80" as="geometry"/></mxCell><mxCell id="7xXleIvDm7jgAc_pziCA-253" value="Only available for Neon Pay" style="rounded=0;whiteSpace=wrap;html=1;fillColor=#dae8fc;strokeColor=#6c8ebf;sketch=0;fontColor=#000000;" parent="1" vertex="1"><mxGeometry x="970" y="2040" width="120" height="80" as="geometry"/></mxCell><mxCell id="7xXleIvDm7jgAc_pziCA-273" value="Country" style="rounded=1;whiteSpace=wrap;html=1;sketch=0;fillColor=#dae8fc;strokeColor=#6c8ebf;fontColor=#000000;" parent="1" vertex="1"><mxGeometry x="320" y="4120" width="160" height="40" as="geometry"/></mxCell><mxCell id="7xXleIvDm7jgAc_pziCA-275" value="Middle Name (Optional)" style="rounded=1;whiteSpace=wrap;html=1;sketch=0;fillColor=#dae8fc;strokeColor=#6c8ebf;fontColor=#000000;" parent="1" vertex="1"><mxGeometry x="320" y="3620" width="160" height="40" as="geometry"/></mxCell><mxCell id="7xXleIvDm7jgAc_pziCA-276" value="Prefix&amp;nbsp;(Optional)" style="rounded=1;whiteSpace=wrap;html=1;sketch=0;fillColor=#dae8fc;strokeColor=#6c8ebf;fontColor=#000000;" parent="1" vertex="1"><mxGeometry x="520" y="3520" width="160" height="40" as="geometry"/></mxCell><mxCell id="7xXleIvDm7jgAc_pziCA-277" value="Suffix&amp;nbsp;(Optional)" style="rounded=1;whiteSpace=wrap;html=1;sketch=0;fillColor=#dae8fc;strokeColor=#6c8ebf;fontColor=#000000;" parent="1" vertex="1"><mxGeometry x="520" y="3570" width="160" height="40" as="geometry"/></mxCell><mxCell id="7xXleIvDm7jgAc_pziCA-278" value="Gender" style="rounded=1;whiteSpace=wrap;html=1;sketch=0;fillColor=#dae8fc;strokeColor=#6c8ebf;fontColor=#000000;" parent="1" vertex="1"><mxGeometry x="200" y="3670" width="160" height="40" as="geometry"/></mxCell><mxCell id="7xXleIvDm7jgAc_pziCA-279" value="Birthday" style="rounded=1;whiteSpace=wrap;html=1;sketch=0;fillColor=#dae8fc;strokeColor=#6c8ebf;fontColor=#000000;" parent="1" vertex="1"><mxGeometry x="200" y="3720" width="160" height="40" as="geometry"/></mxCell><mxCell id="7xXleIvDm7jgAc_pziCA-280" value="Salutation (Optional)" style="rounded=1;whiteSpace=wrap;html=1;sketch=0;fillColor=#dae8fc;strokeColor=#6c8ebf;fontColor=#000000;" parent="1" vertex="1"><mxGeometry x="520" y="3620" width="160" height="40" as="geometry"/></mxCell><mxCell id="L4_pr1pYZJ6r3tZRuc8D-5" value="" style="edgeStyle=orthogonalEdgeStyle;rounded=0;orthogonalLoop=1;jettySize=auto;html=1;entryX=0;entryY=0.5;entryDx=0;entryDy=0;fontColor=#000000;" parent="1" source="V-SNPXjp-S1AOhE5Q4zP-1" target="L4_pr1pYZJ6r3tZRuc8D-4" edge="1"><mxGeometry relative="1" as="geometry"><mxPoint x="390" y="4190" as="targetPoint"/></mxGeometry></mxCell><mxCell id="V-SNPXjp-S1AOhE5Q4zP-1" value="Password" style="rounded=1;whiteSpace=wrap;html=1;sketch=0;fillColor=#dae8fc;strokeColor=#6c8ebf;fontColor=#000000;" parent="1" vertex="1"><mxGeometry x="200" y="4170" width="160" height="40" as="geometry"/></mxCell><mxCell id="V-SNPXjp-S1AOhE5Q4zP-2" value="Confirm Password" style="rounded=1;whiteSpace=wrap;html=1;sketch=0;fillColor=#dae8fc;strokeColor=#6c8ebf;fontColor=#000000;" parent="1" vertex="1"><mxGeometry x="200" y="4220" width="160" height="40" as="geometry"/></mxCell><mxCell id="V-SNPXjp-S1AOhE5Q4zP-9" value="Need to discuss" style="rounded=0;whiteSpace=wrap;html=1;fillColor=#ffe6cc;strokeColor=#d79b00;fontColor=#000000;" parent="1" vertex="1"><mxGeometry x="-160" y="620" width="160" height="40" as="geometry"/></mxCell><mxCell id="V-SNPXjp-S1AOhE5Q4zP-14" value="&lt;div&gt;The page will&lt;/div&gt;&lt;div&gt;&lt;ul&gt;&lt;li style=&quot;text-align: left;&quot;&gt;video player with latest or current stream&lt;/li&gt;&lt;li style=&quot;text-align: left;&quot;&gt;Videos from the last 30 days.&lt;/li&gt;&lt;li style=&quot;text-align: left;&quot;&gt;links to the archive records by month&lt;/li&gt;&lt;/ul&gt;&lt;/div&gt;" style="rounded=0;whiteSpace=wrap;html=1;fillColor=#fff2cc;strokeColor=#d6b656;align=center;fontColor=#000000;" parent="1" vertex="1"><mxGeometry x="280" y="1140" width="160" height="140" as="geometry"/></mxCell><mxCell id="V-SNPXjp-S1AOhE5Q4zP-16" value="&lt;div&gt;The page will&lt;/div&gt;&lt;div&gt;&lt;ul&gt;&lt;li style=&quot;text-align: left;&quot;&gt;video list with thumbnails when clicked opens the video in popup&lt;/li&gt;&lt;/ul&gt;&lt;/div&gt;" style="rounded=0;whiteSpace=wrap;html=1;fillColor=#fff2cc;strokeColor=#d6b656;align=center;fontColor=#000000;" parent="1" vertex="1"><mxGeometry x="520" y="1160" width="120" height="120" as="geometry"/></mxCell><mxCell id="V-SNPXjp-S1AOhE5Q4zP-20" value="&lt;div&gt;The page will&lt;/div&gt;&lt;div&gt;&lt;ul&gt;&lt;li style=&quot;text-align: left;&quot;&gt;images gallery&lt;/li&gt;&lt;li style=&quot;text-align: left;&quot;&gt;title&lt;/li&gt;&lt;li style=&quot;text-align: left;&quot;&gt;text&lt;/li&gt;&lt;li style=&quot;text-align: left;&quot;&gt;price&lt;/li&gt;&lt;li style=&quot;text-align: left;&quot;&gt;quantity selection&lt;/li&gt;&lt;li style=&quot;text-align: left;&quot;&gt;add to cart button&lt;/li&gt;&lt;/ul&gt;&lt;/div&gt;" style="rounded=0;whiteSpace=wrap;html=1;fillColor=#fff2cc;strokeColor=#d6b656;align=center;fontColor=#000000;" parent="1" vertex="1"><mxGeometry x="600" y="1300" width="120" height="180" as="geometry"/></mxCell><mxCell id="V-SNPXjp-S1AOhE5Q4zP-26" value="" style="edgeStyle=orthogonalEdgeStyle;rounded=0;orthogonalLoop=1;jettySize=auto;html=1;" parent="1" source="V-SNPXjp-S1AOhE5Q4zP-22" target="7xXleIvDm7jgAc_pziCA-173" edge="1"><mxGeometry relative="1" as="geometry"/></mxCell><mxCell id="V-SNPXjp-S1AOhE5Q4zP-22" value="Delivery will be." style="rounded=0;whiteSpace=wrap;html=1;fillColor=#dae8fc;strokeColor=#6c8ebf;sketch=0;fontColor=#000000;" parent="1" vertex="1"><mxGeometry x="1570" y="1550" width="120" height="80" as="geometry"/></mxCell><mxCell id="V-SNPXjp-S1AOhE5Q4zP-25" value="" style="edgeStyle=orthogonalEdgeStyle;rounded=0;orthogonalLoop=1;jettySize=auto;html=1;" parent="1" source="V-SNPXjp-S1AOhE5Q4zP-23" target="V-SNPXjp-S1AOhE5Q4zP-22" edge="1"><mxGeometry relative="1" as="geometry"/></mxCell><mxCell id="V-SNPXjp-S1AOhE5Q4zP-23" value="Saving payment methods will not be" style="rounded=0;whiteSpace=wrap;html=1;fillColor=#dae8fc;strokeColor=#6c8ebf;sketch=0;fontColor=#000000;" parent="1" vertex="1"><mxGeometry x="1400" y="1550" width="140" height="80" as="geometry"/></mxCell><mxCell id="V-SNPXjp-S1AOhE5Q4zP-29" value="&lt;div&gt;The page will&lt;/div&gt;&lt;div&gt;&lt;ul&gt;&lt;li style=&quot;text-align: left;&quot;&gt;List of items added to cart&lt;/li&gt;&lt;li style=&quot;text-align: left;&quot;&gt;Delete item&lt;/li&gt;&lt;li style=&quot;text-align: left;&quot;&gt;Change product quantity&lt;/li&gt;&lt;li style=&quot;text-align: left;&quot;&gt;Total purchase amount excluding shipping and taxes&lt;/li&gt;&lt;/ul&gt;&lt;/div&gt;" style="rounded=0;whiteSpace=wrap;html=1;fillColor=#fff2cc;strokeColor=#d6b656;align=center;fontColor=#000000;" parent="1" vertex="1"><mxGeometry x="760" y="1300" width="120" height="230" as="geometry"/></mxCell><mxCell id="V-SNPXjp-S1AOhE5Q4zP-31" value="&lt;div&gt;The page will&lt;/div&gt;&lt;div&gt;&lt;ul&gt;&lt;li style=&quot;text-align: left;&quot;&gt;Purchase form that includes user fields and payment fields&lt;/li&gt;&lt;/ul&gt;&lt;/div&gt;" style="rounded=0;whiteSpace=wrap;html=1;fillColor=#fff2cc;strokeColor=#d6b656;align=center;fontColor=#000000;" parent="1" vertex="1"><mxGeometry x="920" y="1300" width="120" height="230" as="geometry"/></mxCell><mxCell id="UJV2R2LUBAMsPxbDvIgO-2" value="&lt;div&gt;The page will&lt;/div&gt;&lt;div&gt;&lt;ul&gt;&lt;li style=&quot;text-align: left;&quot;&gt;It will be possible to change all User Fields&lt;/li&gt;&lt;/ul&gt;&lt;/div&gt;" style="rounded=0;whiteSpace=wrap;html=1;fillColor=#fff2cc;strokeColor=#d6b656;sketch=0;fontColor=#000000;" parent="1" vertex="1"><mxGeometry x="840" y="2140" width="120" height="120" as="geometry"/></mxCell><mxCell id="UJV2R2LUBAMsPxbDvIgO-4" value="Error Recurring Donation" style="rounded=1;whiteSpace=wrap;html=1;sketch=0;fillColor=#f8cecc;strokeColor=#b85450;fontColor=#000000;" parent="1" vertex="1"><mxGeometry x="200" y="5370" width="160" height="40" as="geometry"/></mxCell><mxCell id="UJV2R2LUBAMsPxbDvIgO-5" value="Info Subscriptions" style="rounded=1;whiteSpace=wrap;html=1;sketch=0;fillColor=#f8cecc;strokeColor=#b85450;fontColor=#000000;" parent="1" vertex="1"><mxGeometry x="200" y="5420" width="160" height="40" as="geometry"/></mxCell><mxCell id="UJV2R2LUBAMsPxbDvIgO-6" value="Cookies Policy" style="rounded=1;whiteSpace=wrap;html=1;" parent="1" vertex="1"><mxGeometry x="210" y="2930" width="160" height="40" as="geometry"/></mxCell><mxCell id="L4_pr1pYZJ6r3tZRuc8D-4" value="&lt;span style=&quot;font-family: Roboto, Helvetica, Lato, Arial, sans-serif; font-size: medium; text-align: start;&quot;&gt;Your password must be at least eight characters long, and contain at least one number.&lt;/span&gt;" style="text;html=1;strokeColor=none;fillColor=none;align=center;verticalAlign=middle;whiteSpace=wrap;rounded=0;sketch=0;fontColor=#000000;labelBackgroundColor=#FFFFFF;" parent="1" vertex="1"><mxGeometry x="415" y="4170" width="620" height="40" as="geometry"/></mxCell><mxCell id="L4_pr1pYZJ6r3tZRuc8D-7" style="edgeStyle=orthogonalEdgeStyle;rounded=0;orthogonalLoop=1;jettySize=auto;html=1;exitX=0.5;exitY=1;exitDx=0;exitDy=0;entryX=0;entryY=0.5;entryDx=0;entryDy=0;fontColor=#000000;" parent="1" source="L4_pr1pYZJ6r3tZRuc8D-12" target="L4_pr1pYZJ6r3tZRuc8D-13" edge="1"><mxGeometry relative="1" as="geometry"/></mxCell><mxCell id="L4_pr1pYZJ6r3tZRuc8D-8" style="edgeStyle=orthogonalEdgeStyle;rounded=0;orthogonalLoop=1;jettySize=auto;html=1;exitX=0.5;exitY=1;exitDx=0;exitDy=0;entryX=0;entryY=0.5;entryDx=0;entryDy=0;fontColor=#000000;" parent="1" source="L4_pr1pYZJ6r3tZRuc8D-12" target="L4_pr1pYZJ6r3tZRuc8D-15" edge="1"><mxGeometry relative="1" as="geometry"/></mxCell><mxCell id="L4_pr1pYZJ6r3tZRuc8D-9" style="edgeStyle=orthogonalEdgeStyle;rounded=0;orthogonalLoop=1;jettySize=auto;html=1;exitX=0.5;exitY=1;exitDx=0;exitDy=0;entryX=0;entryY=0.5;entryDx=0;entryDy=0;fontColor=#000000;" parent="1" source="L4_pr1pYZJ6r3tZRuc8D-12" target="L4_pr1pYZJ6r3tZRuc8D-29" edge="1"><mxGeometry relative="1" as="geometry"/></mxCell><mxCell id="L4_pr1pYZJ6r3tZRuc8D-10" style="edgeStyle=orthogonalEdgeStyle;rounded=0;orthogonalLoop=1;jettySize=auto;html=1;exitX=0.5;exitY=1;exitDx=0;exitDy=0;entryX=0;entryY=0.5;entryDx=0;entryDy=0;fontColor=#000000;" parent="1" source="L4_pr1pYZJ6r3tZRuc8D-12" target="L4_pr1pYZJ6r3tZRuc8D-22" edge="1"><mxGeometry relative="1" as="geometry"/></mxCell><mxCell id="L4_pr1pYZJ6r3tZRuc8D-11" style="edgeStyle=orthogonalEdgeStyle;rounded=0;orthogonalLoop=1;jettySize=auto;html=1;exitX=0.5;exitY=1;exitDx=0;exitDy=0;entryX=0;entryY=0.5;entryDx=0;entryDy=0;fontColor=#000000;" parent="1" source="L4_pr1pYZJ6r3tZRuc8D-12" target="L4_pr1pYZJ6r3tZRuc8D-14" edge="1"><mxGeometry relative="1" as="geometry"/></mxCell><mxCell id="L4_pr1pYZJ6r3tZRuc8D-35" style="edgeStyle=orthogonalEdgeStyle;rounded=0;orthogonalLoop=1;jettySize=auto;html=1;exitX=0.5;exitY=1;exitDx=0;exitDy=0;entryX=0;entryY=0.5;entryDx=0;entryDy=0;fontColor=#000000;" parent="1" source="L4_pr1pYZJ6r3tZRuc8D-12" target="L4_pr1pYZJ6r3tZRuc8D-34" edge="1"><mxGeometry relative="1" as="geometry"/></mxCell><mxCell id="L4_pr1pYZJ6r3tZRuc8D-12" value="Payment Fields" style="rounded=0;whiteSpace=wrap;html=1;fillColor=#dae8fc;strokeColor=#6c8ebf;fontColor=#000000;" parent="1" vertex="1"><mxGeometry x="80" y="4276" width="160" height="80" as="geometry"/></mxCell><mxCell id="L4_pr1pYZJ6r3tZRuc8D-13" value="First Name" style="rounded=1;whiteSpace=wrap;html=1;sketch=0;fillColor=#dae8fc;strokeColor=#6c8ebf;fontColor=#000000;" parent="1" vertex="1"><mxGeometry x="200" y="4396" width="160" height="40" as="geometry"/></mxCell><mxCell id="L4_pr1pYZJ6r3tZRuc8D-14" value="Last Name" style="rounded=1;whiteSpace=wrap;html=1;sketch=0;fillColor=#dae8fc;strokeColor=#6c8ebf;fontColor=#000000;" parent="1" vertex="1"><mxGeometry x="200" y="4446" width="160" height="40" as="geometry"/></mxCell><mxCell id="L4_pr1pYZJ6r3tZRuc8D-15" value="Card Number" style="rounded=1;whiteSpace=wrap;html=1;sketch=0;fillColor=#dae8fc;strokeColor=#6c8ebf;fontColor=#000000;" parent="1" vertex="1"><mxGeometry x="200" y="4496" width="160" height="40" as="geometry"/></mxCell><mxCell id="L4_pr1pYZJ6r3tZRuc8D-16" style="edgeStyle=orthogonalEdgeStyle;rounded=0;orthogonalLoop=1;jettySize=auto;html=1;exitX=0.5;exitY=1;exitDx=0;exitDy=0;entryX=0;entryY=0.5;entryDx=0;entryDy=0;fontColor=#000000;" parent="1" source="L4_pr1pYZJ6r3tZRuc8D-22" target="L4_pr1pYZJ6r3tZRuc8D-23" edge="1"><mxGeometry relative="1" as="geometry"/></mxCell><mxCell id="L4_pr1pYZJ6r3tZRuc8D-17" style="edgeStyle=orthogonalEdgeStyle;rounded=0;orthogonalLoop=1;jettySize=auto;html=1;exitX=0.5;exitY=1;exitDx=0;exitDy=0;entryX=0;entryY=0.5;entryDx=0;entryDy=0;fontColor=#000000;" parent="1" source="L4_pr1pYZJ6r3tZRuc8D-22" target="L4_pr1pYZJ6r3tZRuc8D-24" edge="1"><mxGeometry relative="1" as="geometry"/></mxCell><mxCell id="L4_pr1pYZJ6r3tZRuc8D-18" style="edgeStyle=orthogonalEdgeStyle;rounded=0;orthogonalLoop=1;jettySize=auto;html=1;exitX=0.5;exitY=1;exitDx=0;exitDy=0;entryX=0;entryY=0.5;entryDx=0;entryDy=0;fontColor=#000000;" parent="1" source="L4_pr1pYZJ6r3tZRuc8D-22" target="L4_pr1pYZJ6r3tZRuc8D-25" edge="1"><mxGeometry relative="1" as="geometry"/></mxCell><mxCell id="L4_pr1pYZJ6r3tZRuc8D-19" style="edgeStyle=orthogonalEdgeStyle;rounded=0;orthogonalLoop=1;jettySize=auto;html=1;exitX=0.5;exitY=1;exitDx=0;exitDy=0;entryX=0;entryY=0.5;entryDx=0;entryDy=0;fontColor=#000000;" parent="1" source="L4_pr1pYZJ6r3tZRuc8D-22" target="L4_pr1pYZJ6r3tZRuc8D-26" edge="1"><mxGeometry relative="1" as="geometry"/></mxCell><mxCell id="L4_pr1pYZJ6r3tZRuc8D-20" style="edgeStyle=orthogonalEdgeStyle;rounded=0;orthogonalLoop=1;jettySize=auto;html=1;exitX=0.5;exitY=1;exitDx=0;exitDy=0;entryX=0;entryY=0.5;entryDx=0;entryDy=0;fontColor=#000000;" parent="1" source="L4_pr1pYZJ6r3tZRuc8D-22" target="L4_pr1pYZJ6r3tZRuc8D-27" edge="1"><mxGeometry relative="1" as="geometry"/></mxCell><mxCell id="L4_pr1pYZJ6r3tZRuc8D-21" style="edgeStyle=orthogonalEdgeStyle;rounded=0;orthogonalLoop=1;jettySize=auto;html=1;exitX=0.5;exitY=1;exitDx=0;exitDy=0;entryX=0;entryY=0.5;entryDx=0;entryDy=0;fontColor=#000000;" parent="1" source="L4_pr1pYZJ6r3tZRuc8D-22" target="L4_pr1pYZJ6r3tZRuc8D-28" edge="1"><mxGeometry relative="1" as="geometry"/></mxCell><mxCell id="L4_pr1pYZJ6r3tZRuc8D-22" value="Address" style="rounded=1;whiteSpace=wrap;html=1;sketch=0;fillColor=#dae8fc;strokeColor=#6c8ebf;fontColor=#000000;" parent="1" vertex="1"><mxGeometry x="200" y="4646" width="160" height="40" as="geometry"/></mxCell><mxCell id="L4_pr1pYZJ6r3tZRuc8D-23" value="Address Line 1" style="rounded=1;whiteSpace=wrap;html=1;sketch=0;fillColor=#dae8fc;strokeColor=#6c8ebf;fontColor=#000000;" parent="1" vertex="1"><mxGeometry x="320" y="4696" width="160" height="40" as="geometry"/></mxCell><mxCell id="L4_pr1pYZJ6r3tZRuc8D-24" value="Address Line 2" style="rounded=1;whiteSpace=wrap;html=1;sketch=0;fillColor=#dae8fc;strokeColor=#6c8ebf;fontColor=#000000;" parent="1" vertex="1"><mxGeometry x="320" y="4746" width="160" height="40" as="geometry"/></mxCell><mxCell id="L4_pr1pYZJ6r3tZRuc8D-25" value="City" style="rounded=1;whiteSpace=wrap;html=1;sketch=0;fillColor=#dae8fc;strokeColor=#6c8ebf;fontColor=#000000;" parent="1" vertex="1"><mxGeometry x="320" y="4796" width="160" height="40" as="geometry"/></mxCell><mxCell id="L4_pr1pYZJ6r3tZRuc8D-26" value="State/Province" style="rounded=1;whiteSpace=wrap;html=1;sketch=0;fillColor=#dae8fc;strokeColor=#6c8ebf;fontColor=#000000;" parent="1" vertex="1"><mxGeometry x="320" y="4846" width="160" height="40" as="geometry"/></mxCell><mxCell id="L4_pr1pYZJ6r3tZRuc8D-27" value="Zip Code" style="rounded=1;whiteSpace=wrap;html=1;sketch=0;fillColor=#dae8fc;strokeColor=#6c8ebf;fontColor=#000000;" parent="1" vertex="1"><mxGeometry x="320" y="4896" width="160" height="40" as="geometry"/></mxCell><mxCell id="L4_pr1pYZJ6r3tZRuc8D-28" value="Phone Number" style="rounded=1;whiteSpace=wrap;html=1;sketch=0;fillColor=#dae8fc;strokeColor=#6c8ebf;fontColor=#000000;" parent="1" vertex="1"><mxGeometry x="320" y="4946" width="160" height="40" as="geometry"/></mxCell><mxCell id="L4_pr1pYZJ6r3tZRuc8D-29" value="Expiration" style="rounded=1;whiteSpace=wrap;html=1;sketch=0;fillColor=#dae8fc;strokeColor=#6c8ebf;fontColor=#000000;" parent="1" vertex="1"><mxGeometry x="200" y="4546" width="160" height="40" as="geometry"/></mxCell><mxCell id="L4_pr1pYZJ6r3tZRuc8D-34" value="CVC" style="rounded=1;whiteSpace=wrap;html=1;sketch=0;fillColor=#dae8fc;strokeColor=#6c8ebf;fontColor=#000000;" parent="1" vertex="1"><mxGeometry x="200" y="4596" width="160" height="40" as="geometry"/></mxCell><mxCell id="c5qxtLoEuRJrSgBG_Tk3-8" style="edgeStyle=orthogonalEdgeStyle;rounded=0;orthogonalLoop=1;jettySize=auto;html=1;exitX=1;exitY=0.5;exitDx=0;exitDy=0;entryX=0;entryY=0.5;entryDx=0;entryDy=0;" parent="1" source="L4_pr1pYZJ6r3tZRuc8D-37" target="c5qxtLoEuRJrSgBG_Tk3-5" edge="1"><mxGeometry relative="1" as="geometry"/></mxCell><mxCell id="L4_pr1pYZJ6r3tZRuc8D-37" value="Forgot Password" style="rounded=1;whiteSpace=wrap;html=1;fillColor=#b0e3e6;strokeColor=#0e8088;sketch=0;fontColor=#000000;" parent="1" vertex="1"><mxGeometry x="450" y="1870" width="160" height="40" as="geometry"/></mxCell><mxCell id="L4_pr1pYZJ6r3tZRuc8D-40" value="" style="edgeStyle=orthogonalEdgeStyle;rounded=0;orthogonalLoop=1;jettySize=auto;html=1;" parent="1" source="L4_pr1pYZJ6r3tZRuc8D-39" target="7xXleIvDm7jgAc_pziCA-252" edge="1"><mxGeometry relative="1" as="geometry"/></mxCell><mxCell id="L4_pr1pYZJ6r3tZRuc8D-39" value="Ability to cancel or change recurring donations." style="rounded=0;whiteSpace=wrap;html=1;fillColor=#dae8fc;strokeColor=#6c8ebf;sketch=0;fontColor=#000000;" parent="1" vertex="1"><mxGeometry x="650" y="2040" width="120" height="80" as="geometry"/></mxCell><mxCell id="-_FQMDCxjEHK3Y9CZDl9-2" value="" style="edgeStyle=orthogonalEdgeStyle;rounded=0;orthogonalLoop=1;jettySize=auto;html=1;fontColor=#000000;" parent="1" source="L4_pr1pYZJ6r3tZRuc8D-53" target="-_FQMDCxjEHK3Y9CZDl9-1" edge="1"><mxGeometry relative="1" as="geometry"/></mxCell><mxCell id="L4_pr1pYZJ6r3tZRuc8D-53" value="We will not have a subscription management page in the account" style="rounded=0;whiteSpace=wrap;html=1;fillColor=#dae8fc;strokeColor=#6c8ebf;fontColor=#000000;" parent="1" vertex="1"><mxGeometry x="440" y="3160" width="120" height="80" as="geometry"/></mxCell><mxCell id="L4_pr1pYZJ6r3tZRuc8D-55" value="&lt;div&gt;The page will&lt;/div&gt;&lt;div&gt;&lt;ul&gt;&lt;li style=&quot;text-align: left;&quot;&gt;&lt;span style=&quot;text-align: center;&quot;&gt;cost field&lt;/span&gt;&lt;/li&gt;&lt;li style=&quot;text-align: left;&quot;&gt;&lt;span style=&quot;text-align: center;&quot;&gt;period select&lt;/span&gt;&lt;/li&gt;&lt;li style=&quot;text-align: center;&quot;&gt;payment fields&lt;/li&gt;&lt;li style=&quot;text-align: left;&quot;&gt;All these things have to change separately&lt;/li&gt;&lt;/ul&gt;&lt;/div&gt;" style="rounded=0;whiteSpace=wrap;html=1;fillColor=#fff2cc;strokeColor=#d6b656;sketch=0;fontColor=#000000;" parent="1" vertex="1"><mxGeometry x="1130" y="2000" width="120" height="200" as="geometry"/></mxCell><mxCell id="L4_pr1pYZJ6r3tZRuc8D-57" value="&lt;div&gt;The page will&lt;/div&gt;&lt;div&gt;&lt;ul&gt;&lt;li style=&quot;text-align: left;&quot;&gt;&lt;span style=&quot;text-align: center;&quot;&gt;cost field&lt;/span&gt;&lt;/li&gt;&lt;li style=&quot;text-align: left;&quot;&gt;&lt;span style=&quot;text-align: center;&quot;&gt;period select&lt;/span&gt;&lt;/li&gt;&lt;li style=&quot;text-align: center;&quot;&gt;payment fields&lt;/li&gt;&lt;/ul&gt;&lt;/div&gt;" style="rounded=0;whiteSpace=wrap;html=1;fillColor=#fff2cc;strokeColor=#d6b656;sketch=0;fontColor=#000000;" parent="1" vertex="1"><mxGeometry x="1240" y="2320" width="120" height="200" as="geometry"/></mxCell><mxCell id="L4_pr1pYZJ6r3tZRuc8D-61" value="404" style="rounded=1;whiteSpace=wrap;html=1;" parent="1" vertex="1"><mxGeometry x="210" y="3000" width="160" height="40" as="geometry"/></mxCell><mxCell id="L4_pr1pYZJ6r3tZRuc8D-62" value="Search by pages and blog posts" style="rounded=1;whiteSpace=wrap;html=1;" parent="1" vertex="1"><mxGeometry x="210" y="3080" width="160" height="40" as="geometry"/></mxCell><mxCell id="L4_pr1pYZJ6r3tZRuc8D-66" value="&lt;a href=&quot;https://docs.neononepay.com/&quot;&gt;https://docs.neononepay.com/&lt;/a&gt;" style="text;html=1;strokeColor=none;fillColor=none;align=center;verticalAlign=middle;whiteSpace=wrap;rounded=0;sketch=0;labelBackgroundColor=#FFFFFF;" parent="1" vertex="1"><mxGeometry x="440" y="5730" width="180" height="30" as="geometry"/></mxCell><mxCell id="L4_pr1pYZJ6r3tZRuc8D-67" value="&lt;a href=&quot;https://developer.neoncrm.com/api-v2/&quot;&gt;https://developer.neoncrm.com/api-v2/&lt;/a&gt;" style="text;html=1;align=center;verticalAlign=middle;resizable=0;points=[];autosize=1;strokeColor=none;fillColor=none;labelBackgroundColor=#FFFFFF;" parent="1" vertex="1"><mxGeometry x="440" y="5630" width="230" height="30" as="geometry"/></mxCell><mxCell id="L4_pr1pYZJ6r3tZRuc8D-78" value="&lt;a href=&quot;https://livestream.com/developers/docs/api&quot;&gt;https://livestream.com/developers/docs/api&lt;/a&gt;" style="text;html=1;align=center;verticalAlign=middle;resizable=0;points=[];autosize=1;strokeColor=none;fillColor=none;labelBackgroundColor=#FFFFFF;" parent="1" vertex="1"><mxGeometry x="440" y="5805" width="250" height="30" as="geometry"/></mxCell><mxCell id="WkCh3vwjCoDEeLmgxas2-6" value="" style="edgeStyle=orthogonalEdgeStyle;rounded=0;orthogonalLoop=1;jettySize=auto;html=1;" parent="1" source="WkCh3vwjCoDEeLmgxas2-1" target="WkCh3vwjCoDEeLmgxas2-2" edge="1"><mxGeometry relative="1" as="geometry"/></mxCell><mxCell id="WkCh3vwjCoDEeLmgxas2-1" value="&lt;p data-pm-slice=&quot;1 1 [&amp;quot;orderedList&amp;quot;,null,&amp;quot;listItem&amp;quot;,null]&quot;&gt;There will be a search for the titles and text of the event.&lt;/p&gt;" style="rounded=0;whiteSpace=wrap;html=1;fillColor=#dae8fc;strokeColor=#6c8ebf;fontColor=#000000;" parent="1" vertex="1"><mxGeometry x="960" y="550" width="120" height="80" as="geometry"/></mxCell><mxCell id="WkCh3vwjCoDEeLmgxas2-7" value="" style="edgeStyle=orthogonalEdgeStyle;rounded=0;orthogonalLoop=1;jettySize=auto;html=1;" parent="1" source="WkCh3vwjCoDEeLmgxas2-2" target="WkCh3vwjCoDEeLmgxas2-3" edge="1"><mxGeometry relative="1" as="geometry"/></mxCell><mxCell id="WkCh3vwjCoDEeLmgxas2-2" value="&lt;p data-pm-slice=&quot;1 1 [&amp;quot;orderedList&amp;quot;,null,&amp;quot;listItem&amp;quot;,null]&quot;&gt;There will be a filter by category&lt;/p&gt;" style="rounded=0;whiteSpace=wrap;html=1;fillColor=#dae8fc;strokeColor=#6c8ebf;fontColor=#000000;" parent="1" vertex="1"><mxGeometry x="1120" y="550" width="120" height="80" as="geometry"/></mxCell><mxCell id="WkCh3vwjCoDEeLmgxas2-3" value="&lt;p data-pm-slice=&quot;1 1 [&amp;quot;orderedList&amp;quot;,null,&amp;quot;listItem&amp;quot;,null]&quot;&gt;There will be two ways to display: list and calendar&lt;/p&gt;" style="rounded=0;whiteSpace=wrap;html=1;fillColor=#dae8fc;strokeColor=#6c8ebf;fontColor=#000000;" parent="1" vertex="1"><mxGeometry x="1280" y="550" width="120" height="80" as="geometry"/></mxCell><mxCell id="WkCh3vwjCoDEeLmgxas2-12" style="edgeStyle=orthogonalEdgeStyle;rounded=0;orthogonalLoop=1;jettySize=auto;html=1;exitX=0.5;exitY=1;exitDx=0;exitDy=0;entryX=0;entryY=0.5;entryDx=0;entryDy=0;strokeColor=#000000;fontColor=#000000;" parent="1" source="WkCh3vwjCoDEeLmgxas2-10" target="7xXleIvDm7jgAc_pziCA-198" edge="1"><mxGeometry relative="1" as="geometry"/></mxCell><mxCell id="WkCh3vwjCoDEeLmgxas2-13" style="edgeStyle=orthogonalEdgeStyle;rounded=0;orthogonalLoop=1;jettySize=auto;html=1;exitX=0.5;exitY=1;exitDx=0;exitDy=0;entryX=0;entryY=0.5;entryDx=0;entryDy=0;strokeColor=#000000;fontColor=#000000;" parent="1" source="WkCh3vwjCoDEeLmgxas2-10" target="7xXleIvDm7jgAc_pziCA-199" edge="1"><mxGeometry relative="1" as="geometry"/></mxCell><mxCell id="WkCh3vwjCoDEeLmgxas2-14" style="edgeStyle=orthogonalEdgeStyle;rounded=0;orthogonalLoop=1;jettySize=auto;html=1;exitX=0.5;exitY=1;exitDx=0;exitDy=0;entryX=0;entryY=0.5;entryDx=0;entryDy=0;strokeColor=#000000;fontColor=#000000;" parent="1" source="WkCh3vwjCoDEeLmgxas2-10" target="7xXleIvDm7jgAc_pziCA-275" edge="1"><mxGeometry relative="1" as="geometry"><Array as="points"><mxPoint x="280" y="3640"/></Array></mxGeometry></mxCell><mxCell id="WkCh3vwjCoDEeLmgxas2-15" style="edgeStyle=orthogonalEdgeStyle;rounded=0;orthogonalLoop=1;jettySize=auto;html=1;exitX=1;exitY=0.5;exitDx=0;exitDy=0;entryX=0;entryY=0.5;entryDx=0;entryDy=0;strokeColor=#000000;fontColor=#000000;" parent="1" source="WkCh3vwjCoDEeLmgxas2-10" target="7xXleIvDm7jgAc_pziCA-276" edge="1"><mxGeometry relative="1" as="geometry"><Array as="points"><mxPoint x="500" y="3490"/><mxPoint x="500" y="3540"/></Array></mxGeometry></mxCell><mxCell id="WkCh3vwjCoDEeLmgxas2-16" style="edgeStyle=orthogonalEdgeStyle;rounded=0;orthogonalLoop=1;jettySize=auto;html=1;exitX=1;exitY=0.5;exitDx=0;exitDy=0;entryX=0;entryY=0.5;entryDx=0;entryDy=0;strokeColor=#000000;fontColor=#000000;" parent="1" source="WkCh3vwjCoDEeLmgxas2-10" target="7xXleIvDm7jgAc_pziCA-277" edge="1"><mxGeometry relative="1" as="geometry"><Array as="points"><mxPoint x="500" y="3490"/><mxPoint x="500" y="3590"/></Array></mxGeometry></mxCell><mxCell id="WkCh3vwjCoDEeLmgxas2-17" style="edgeStyle=orthogonalEdgeStyle;rounded=0;orthogonalLoop=1;jettySize=auto;html=1;exitX=1;exitY=0.5;exitDx=0;exitDy=0;entryX=0;entryY=0.5;entryDx=0;entryDy=0;strokeColor=#000000;fontColor=#000000;" parent="1" source="WkCh3vwjCoDEeLmgxas2-10" target="7xXleIvDm7jgAc_pziCA-280" edge="1"><mxGeometry relative="1" as="geometry"><Array as="points"><mxPoint x="500" y="3490"/><mxPoint x="500" y="3640"/></Array></mxGeometry></mxCell><mxCell id="WkCh3vwjCoDEeLmgxas2-10" value="Name" style="rounded=1;whiteSpace=wrap;html=1;sketch=0;fillColor=#dae8fc;strokeColor=#6c8ebf;fontColor=#000000;" parent="1" vertex="1"><mxGeometry x="200" y="3470" width="160" height="40" as="geometry"/></mxCell><mxCell id="c5qxtLoEuRJrSgBG_Tk3-4" value="" style="edgeStyle=orthogonalEdgeStyle;rounded=0;orthogonalLoop=1;jettySize=auto;html=1;" parent="1" source="c5qxtLoEuRJrSgBG_Tk3-1" target="c5qxtLoEuRJrSgBG_Tk3-2" edge="1"><mxGeometry relative="1" as="geometry"/></mxCell><mxCell id="c5qxtLoEuRJrSgBG_Tk3-1" value="Сохранять ID в браузере" style="rounded=0;whiteSpace=wrap;html=1;fillColor=#dae8fc;strokeColor=#6c8ebf;sketch=0;fontColor=#000000;" parent="1" vertex="1"><mxGeometry x="720" y="1710" width="120" height="80" as="geometry"/></mxCell><mxCell id="c5qxtLoEuRJrSgBG_Tk3-2" value="Receive data directly from neon, unfortunately we cannot do it from the front and we need a layer on the server." style="rounded=0;whiteSpace=wrap;html=1;fillColor=#dae8fc;strokeColor=#6c8ebf;sketch=0;fontColor=#000000;" parent="1" vertex="1"><mxGeometry x="880" y="1710" width="160" height="80" as="geometry"/></mxCell><mxCell id="c5qxtLoEuRJrSgBG_Tk3-5" value="&lt;div&gt;The pages will&lt;/div&gt;&lt;div&gt;&lt;ul&gt;&lt;li style=&quot;text-align: left;&quot;&gt;While the design is not needed, it will be forms on another site&amp;nbsp;&lt;/li&gt;&lt;li style=&quot;text-align: left;&quot;&gt;Maybe we'll need it later when we have an example.&lt;/li&gt;&lt;/ul&gt;&lt;/div&gt;" style="rounded=0;whiteSpace=wrap;html=1;fillColor=#fff2cc;strokeColor=#d6b656;align=center;fontColor=#000000;" parent="1" vertex="1"><mxGeometry x="680" y="1800" width="240" height="100" as="geometry"/></mxCell><mxCell id="c5qxtLoEuRJrSgBG_Tk3-14" value="&lt;div&gt;The page will&lt;/div&gt;&lt;div&gt;&lt;ul&gt;&lt;li style=&quot;text-align: left;&quot;&gt;List of all purchases&lt;/li&gt;&lt;ul&gt;&lt;li style=&quot;text-align: left;&quot;&gt;products&lt;/li&gt;&lt;li style=&quot;text-align: left;&quot;&gt;registration for events&lt;/li&gt;&lt;li style=&quot;text-align: left;&quot;&gt;donations&lt;/li&gt;&lt;/ul&gt;&lt;li style=&quot;text-align: left;&quot;&gt;Recurring donations should have an edit button.&lt;/li&gt;&lt;/ul&gt;&lt;/div&gt;" style="rounded=0;whiteSpace=wrap;html=1;fillColor=#fff2cc;strokeColor=#d6b656;sketch=0;fontColor=#000000;" parent="1" vertex="1"><mxGeometry x="1270" y="1840" width="200" height="140" as="geometry"/></mxCell><mxCell id="c5qxtLoEuRJrSgBG_Tk3-16" value="&lt;div&gt;The page will&lt;/div&gt;&lt;div&gt;&lt;ul&gt;&lt;li style=&quot;text-align: left;&quot;&gt;Just a page with a registration form&lt;/li&gt;&lt;/ul&gt;&lt;/div&gt;" style="rounded=0;whiteSpace=wrap;html=1;fillColor=#fff2cc;strokeColor=#d6b656;sketch=0;fontColor=#000000;" parent="1" vertex="1"><mxGeometry x="960" y="1880" width="120" height="120" as="geometry"/></mxCell><mxCell id="-_FQMDCxjEHK3Y9CZDl9-1" value="Will send letters manually from neon, we don't need automation with WP" style="rounded=0;whiteSpace=wrap;html=1;fillColor=#dae8fc;strokeColor=#6c8ebf;fontColor=#000000;" parent="1" vertex="1"><mxGeometry x="600" y="3160" width="120" height="80" as="geometry"/></mxCell></root></mxGraphModel></diagram></mxfile>